<?xml version="1.0" encoding="UTF-8"?>
<!-- Generator: Adobe Illustrator 24.0.1, SVG Export Plug-In . SVG Version: 6.00 Build 0)  -->
<svg version="1.1" id="Layer_1" xmlns="http://www.w3.org/2000/svg" xmlns:xlink="http://www.w3.org/1999/xlink" x="0px" y="0px" viewBox="0 0 453 58" style="enable-background:new 0 0 453 58;" xml:space="preserve">
<style type="text/css">
	.st0{fill:#FDA12F;}
</style>
<g>
	<path class="st0" d="M34.44,42.74l-6.37-16.13l-9.33,14.71h-5.85l13.04-21.05l-1.46-4.16h-5.08v-4.96h8.69l9.98,25.38l4.39-1.43   l1.46,4.92L34.44,42.74z"/>
	<path class="st0" d="M28.65,57.16C13.02,57.16,0.3,44.44,0.3,28.81c0-15.63,12.72-28.35,28.35-28.35C44.28,0.46,57,13.18,57,28.81   C57,44.44,44.28,57.16,28.65,57.16z M28.65,6.07C16.11,6.07,5.9,16.27,5.9,28.81s10.2,22.74,22.74,22.74   c12.54,0,22.74-10.2,22.74-22.74S41.19,6.07,28.65,6.07z"/>
	<g>
		<path class="st0" d="M72.13,11.61h-6.15V9.39h14.97v2.22h-6.18v18h-2.64V11.61z"/>
		<path class="st0" d="M82.9,8.31h2.64v9.06h0.06c0.42-0.75,1.08-1.41,1.89-1.86c0.78-0.45,1.71-0.75,2.7-0.75    c1.95,0,5.07,1.2,5.07,6.21v8.64h-2.64v-8.34c0-2.34-0.87-4.32-3.36-4.32c-1.71,0-3.06,1.2-3.54,2.64    c-0.15,0.36-0.18,0.75-0.18,1.26v8.76H82.9V8.31z"/>
		<path class="st0" d="M101.02,22.83c0.06,3.57,2.34,5.04,4.98,5.04c1.89,0,3.03-0.33,4.02-0.75l0.45,1.89    c-0.93,0.42-2.52,0.9-4.83,0.9c-4.47,0-7.14-2.94-7.14-7.32s2.58-7.83,6.81-7.83c4.74,0,6,4.17,6,6.84c0,0.54-0.06,0.96-0.09,1.23    H101.02z M108.76,20.94c0.03-1.68-0.69-4.29-3.66-4.29c-2.67,0-3.84,2.46-4.05,4.29H108.76z"/>
		<path class="st0" d="M123.25,29.61l-5.13-20.22h2.76l2.4,10.23c0.6,2.52,1.14,5.04,1.5,6.99h0.06c0.33-2.01,0.96-4.41,1.65-7.02    l2.7-10.2h2.73l2.46,10.26c0.57,2.4,1.11,4.8,1.41,6.93h0.06c0.42-2.22,0.99-4.47,1.62-6.99l2.67-10.2h2.67l-5.73,20.22h-2.73    l-2.55-10.53c-0.63-2.58-1.05-4.56-1.32-6.6h-0.06c-0.36,2.01-0.81,3.99-1.56,6.6l-2.88,10.53H123.25z"/>
		<path class="st0" d="M145.09,8.31h2.64v9.06h0.06c0.42-0.75,1.08-1.41,1.89-1.86c0.78-0.45,1.71-0.75,2.7-0.75    c1.95,0,5.07,1.2,5.07,6.21v8.64h-2.64v-8.34c0-2.34-0.87-4.32-3.36-4.32c-1.71,0-3.06,1.2-3.54,2.64    c-0.15,0.36-0.18,0.75-0.18,1.26v8.76h-2.64V8.31z"/>
		<path class="st0" d="M174.88,22.23c0,5.37-3.72,7.71-7.23,7.71c-3.93,0-6.96-2.88-6.96-7.47c0-4.86,3.18-7.71,7.2-7.71    C172.06,14.76,174.88,17.79,174.88,22.23z M163.36,22.38c0,3.18,1.83,5.58,4.41,5.58c2.52,0,4.41-2.37,4.41-5.64    c0-2.46-1.23-5.58-4.35-5.58C164.71,16.74,163.36,19.62,163.36,22.38z"/>
		<path class="st0" d="M178.21,8.31h2.64v21.3h-2.64V8.31z"/>
		<path class="st0" d="M186.76,22.83c0.06,3.57,2.34,5.04,4.98,5.04c1.89,0,3.03-0.33,4.02-0.75l0.45,1.89    c-0.93,0.42-2.52,0.9-4.83,0.9c-4.47,0-7.14-2.94-7.14-7.32s2.58-7.83,6.81-7.83c4.74,0,6,4.17,6,6.84c0,0.54-0.06,0.96-0.09,1.23    H186.76z M194.5,20.94c0.03-1.68-0.69-4.29-3.66-4.29c-2.67,0-3.84,2.46-4.05,4.29H194.5z"/>
		<path class="st0" d="M209.38,9.39v8.46h9.78V9.39h2.64v20.22h-2.64v-9.48h-9.78v9.48h-2.61V9.39H209.38z"/>
		<path class="st0" d="M234.27,29.61l-0.21-1.83h-0.09c-0.81,1.14-2.37,2.16-4.44,2.16c-2.94,0-4.44-2.07-4.44-4.17    c0-3.51,3.12-5.43,8.73-5.4v-0.3c0-1.2-0.33-3.36-3.3-3.36c-1.35,0-2.76,0.42-3.78,1.08l-0.6-1.74c1.2-0.78,2.94-1.29,4.77-1.29    c4.44,0,5.52,3.03,5.52,5.94v5.43c0,1.26,0.06,2.49,0.24,3.48H234.27z M233.88,22.2c-2.88-0.06-6.15,0.45-6.15,3.27    c0,1.71,1.14,2.52,2.49,2.52c1.89,0,3.09-1.2,3.51-2.43c0.09-0.27,0.15-0.57,0.15-0.84V22.2z"/>
		<path class="st0" d="M240.69,8.31h2.64v21.3h-2.64V8.31z"/>
		<path class="st0" d="M248.04,29.61V17.1H246v-2.01h2.04V14.4c0-2.04,0.45-3.9,1.68-5.07c0.99-0.96,2.31-1.35,3.54-1.35    c0.93,0,1.74,0.21,2.25,0.42l-0.36,2.04c-0.39-0.18-0.93-0.33-1.68-0.33c-2.25,0-2.82,1.98-2.82,4.2v0.78h3.51v2.01h-3.51v12.51    H248.04z"/>
		<path class="st0" d="M262.65,20.52v1.95h-7.41v-1.95H262.65z"/>
		<path class="st0" d="M265.83,9.39h2.61v18.03h8.64v2.19h-11.25V9.39z"/>
		<path class="st0" d="M282.84,11.01c0.03,0.9-0.63,1.62-1.68,1.62c-0.93,0-1.59-0.72-1.59-1.62c0-0.93,0.69-1.65,1.65-1.65    C282.21,9.36,282.84,10.08,282.84,11.01z M279.9,29.61V15.09h2.64v14.52H279.9z"/>
		<path class="st0" d="M287.19,29.61V17.1h-2.04v-2.01h2.04V14.4c0-2.04,0.45-3.9,1.68-5.07c0.99-0.96,2.31-1.35,3.54-1.35    c0.93,0,1.74,0.21,2.25,0.42l-0.36,2.04c-0.39-0.18-0.93-0.33-1.68-0.33c-2.25,0-2.82,1.98-2.82,4.2v0.78h3.51v2.01h-3.51v12.51    H287.19z"/>
		<path class="st0" d="M296.76,22.83c0.06,3.57,2.34,5.04,4.98,5.04c1.89,0,3.03-0.33,4.02-0.75l0.45,1.89    c-0.93,0.42-2.52,0.9-4.83,0.9c-4.47,0-7.14-2.94-7.14-7.32s2.58-7.83,6.81-7.83c4.74,0,6,4.17,6,6.84c0,0.54-0.06,0.96-0.09,1.23    H296.76z M304.5,20.94c0.03-1.68-0.69-4.29-3.66-4.29c-2.67,0-3.84,2.46-4.05,4.29H304.5z"/>
	</g>
	<g>
		<path class="st0" d="M67.55,39.26h1.39v9.62h4.61v1.17h-6V39.26z"/>
		<path class="st0" d="M75.61,46.43c0.03,1.9,1.25,2.69,2.66,2.69c1.01,0,1.62-0.18,2.15-0.4l0.24,1.01    c-0.5,0.22-1.34,0.48-2.58,0.48c-2.39,0-3.81-1.57-3.81-3.91s1.38-4.18,3.63-4.18c2.53,0,3.2,2.22,3.2,3.65    c0,0.29-0.03,0.51-0.05,0.66H75.61z M79.74,45.42c0.02-0.9-0.37-2.29-1.95-2.29c-1.42,0-2.05,1.31-2.16,2.29H79.74z"/>
		<path class="st0" d="M83.39,42.3l1.52,4.35c0.26,0.7,0.46,1.34,0.62,1.99h0.05c0.18-0.64,0.4-1.28,0.66-1.99l1.5-4.35h1.47    l-3.04,7.75h-1.34l-2.95-7.75H83.39z"/>
		<path class="st0" d="M91.16,46.43c0.03,1.9,1.25,2.69,2.66,2.69c1.01,0,1.62-0.18,2.15-0.4l0.24,1.01    c-0.5,0.22-1.34,0.48-2.58,0.48c-2.39,0-3.81-1.57-3.81-3.91s1.38-4.18,3.63-4.18c2.53,0,3.2,2.22,3.2,3.65    c0,0.29-0.03,0.51-0.05,0.66H91.16z M95.29,45.42c0.02-0.9-0.37-2.29-1.95-2.29c-1.42,0-2.05,1.31-2.16,2.29H95.29z"/>
		<path class="st0" d="M98.39,38.69h1.41v11.36h-1.41V38.69z"/>
		<path class="st0" d="M112.25,38.69v9.36c0,0.69,0.02,1.47,0.06,2h-1.26l-0.06-1.34h-0.03c-0.43,0.86-1.38,1.52-2.64,1.52    c-1.87,0-3.31-1.58-3.31-3.94c-0.02-2.58,1.58-4.16,3.47-4.16c1.18,0,1.98,0.56,2.34,1.18h0.03v-4.63H112.25z M110.84,45.46    c0-0.18-0.02-0.42-0.06-0.59c-0.21-0.9-0.98-1.63-2.03-1.63c-1.46,0-2.32,1.28-2.32,2.99c0,1.57,0.77,2.87,2.29,2.87    c0.94,0,1.81-0.62,2.06-1.68c0.05-0.19,0.06-0.38,0.06-0.61V45.46z"/>
		<path class="st0" d="M115.37,46.43c0.03,1.9,1.25,2.69,2.66,2.69c1.01,0,1.62-0.18,2.15-0.4l0.24,1.01    c-0.5,0.22-1.34,0.48-2.58,0.48c-2.39,0-3.81-1.57-3.81-3.91s1.38-4.18,3.63-4.18c2.53,0,3.2,2.22,3.2,3.65    c0,0.29-0.03,0.51-0.05,0.66H115.37z M119.5,45.42c0.02-0.9-0.37-2.29-1.95-2.29c-1.42,0-2.05,1.31-2.16,2.29H119.5z"/>
		<path class="st0" d="M122.41,48.61c0.42,0.27,1.15,0.56,1.86,0.56c1.02,0,1.5-0.51,1.5-1.15c0-0.67-0.4-1.04-1.44-1.42    c-1.39-0.5-2.05-1.26-2.05-2.19c0-1.25,1.01-2.27,2.67-2.27c0.78,0,1.47,0.22,1.9,0.48l-0.35,1.02c-0.3-0.19-0.86-0.45-1.58-0.45    c-0.83,0-1.3,0.48-1.3,1.06c0,0.64,0.46,0.93,1.47,1.31c1.34,0.51,2.03,1.18,2.03,2.34c0,1.36-1.06,2.32-2.9,2.32    c-0.85,0-1.63-0.21-2.18-0.53L122.41,48.61z"/>
		<path class="st0" d="M130.51,40.13c0.02,0.48-0.34,0.86-0.9,0.86c-0.5,0-0.85-0.38-0.85-0.86c0-0.5,0.37-0.88,0.88-0.88    C130.17,39.25,130.51,39.63,130.51,40.13z M128.94,50.05V42.3h1.41v7.75H128.94z"/>
		<path class="st0" d="M139.36,42.3c-0.03,0.56-0.06,1.18-0.06,2.13v4.5c0,1.78-0.35,2.87-1.1,3.54c-0.75,0.7-1.84,0.93-2.82,0.93    c-0.93,0-1.95-0.22-2.58-0.64l0.35-1.07c0.51,0.32,1.31,0.61,2.27,0.61c1.44,0,2.5-0.75,2.5-2.71v-0.86h-0.03    c-0.43,0.72-1.26,1.3-2.46,1.3c-1.92,0-3.3-1.63-3.3-3.78c0-2.62,1.71-4.11,3.49-4.11c1.34,0,2.08,0.7,2.42,1.34h0.03l0.06-1.17    H139.36z M137.9,45.36c0-0.24-0.02-0.45-0.08-0.64c-0.26-0.82-0.94-1.49-1.97-1.49c-1.34,0-2.31,1.14-2.31,2.93    c0,1.52,0.77,2.79,2.29,2.79c0.86,0,1.65-0.54,1.95-1.44c0.08-0.24,0.11-0.51,0.11-0.75V45.36z"/>
		<path class="st0" d="M141.53,44.4c0-0.8-0.02-1.46-0.06-2.1h1.25l0.08,1.28h0.03c0.38-0.74,1.28-1.46,2.56-1.46    c1.07,0,2.74,0.64,2.74,3.3v4.63h-1.41v-4.47c0-1.25-0.46-2.29-1.79-2.29c-0.93,0-1.65,0.66-1.89,1.44    c-0.06,0.18-0.1,0.42-0.1,0.66v4.66h-1.41V44.4z"/>
		<path class="st0" d="M153.8,44.72c0-0.91-0.02-1.7-0.06-2.42h1.23l0.05,1.52h0.06c0.35-1.04,1.2-1.7,2.14-1.7    c0.16,0,0.27,0.02,0.4,0.05v1.33c-0.14-0.03-0.29-0.05-0.48-0.05c-0.99,0-1.7,0.75-1.89,1.81c-0.03,0.19-0.06,0.42-0.06,0.66v4.13    h-1.39V44.72z"/>
		<path class="st0" d="M159.66,46.43c0.03,1.9,1.25,2.69,2.66,2.69c1.01,0,1.62-0.18,2.15-0.4l0.24,1.01    c-0.5,0.22-1.34,0.48-2.58,0.48c-2.39,0-3.81-1.57-3.81-3.91s1.38-4.18,3.63-4.18c2.53,0,3.2,2.22,3.2,3.65    c0,0.29-0.03,0.51-0.05,0.66H159.66z M163.79,45.42c0.02-0.9-0.37-2.29-1.95-2.29c-1.42,0-2.05,1.31-2.16,2.29H163.79z"/>
		<path class="st0" d="M166.7,48.61c0.42,0.27,1.15,0.56,1.86,0.56c1.02,0,1.5-0.51,1.5-1.15c0-0.67-0.4-1.04-1.44-1.42    c-1.39-0.5-2.05-1.26-2.05-2.19c0-1.25,1.01-2.27,2.67-2.27c0.78,0,1.47,0.22,1.9,0.48l-0.35,1.02c-0.3-0.19-0.86-0.45-1.58-0.45    c-0.83,0-1.3,0.48-1.3,1.06c0,0.64,0.46,0.93,1.47,1.31c1.34,0.51,2.03,1.18,2.03,2.34c0,1.36-1.06,2.32-2.9,2.32    c-0.85,0-1.63-0.21-2.18-0.53L166.7,48.61z"/>
		<path class="st0" d="M180.24,46.11c0,2.87-1.98,4.11-3.86,4.11c-2.1,0-3.71-1.54-3.71-3.99c0-2.59,1.7-4.11,3.84-4.11    C178.73,42.13,180.24,43.74,180.24,46.11z M174.09,46.19c0,1.7,0.98,2.98,2.35,2.98c1.34,0,2.35-1.26,2.35-3.01    c0-1.31-0.66-2.98-2.32-2.98C174.81,43.18,174.09,44.72,174.09,46.19z"/>
		<path class="st0" d="M188.49,47.94c0,0.8,0.02,1.5,0.06,2.11h-1.25l-0.08-1.26h-0.03c-0.37,0.62-1.18,1.44-2.56,1.44    c-1.22,0-2.67-0.67-2.67-3.39V42.3h1.41v4.29c0,1.47,0.45,2.46,1.73,2.46c0.94,0,1.6-0.66,1.86-1.28    c0.08-0.21,0.13-0.46,0.13-0.72V42.3h1.41V47.94z"/>
		<path class="st0" d="M190.83,44.72c0-0.91-0.02-1.7-0.06-2.42h1.23l0.05,1.52h0.06c0.35-1.04,1.2-1.7,2.14-1.7    c0.16,0,0.27,0.02,0.4,0.05v1.33c-0.14-0.03-0.29-0.05-0.48-0.05c-0.99,0-1.7,0.75-1.89,1.81c-0.03,0.19-0.06,0.42-0.06,0.66v4.13    h-1.39V44.72z"/>
		<path class="st0" d="M201.42,49.76c-0.37,0.19-1.18,0.45-2.23,0.45c-2.34,0-3.86-1.58-3.86-3.95c0-2.38,1.63-4.11,4.16-4.11    c0.83,0,1.57,0.21,1.95,0.4l-0.32,1.09c-0.34-0.19-0.86-0.37-1.63-0.37c-1.78,0-2.74,1.31-2.74,2.93c0,1.79,1.15,2.9,2.69,2.9    c0.8,0,1.33-0.21,1.73-0.38L201.42,49.76z"/>
		<path class="st0" d="M203.75,46.43c0.03,1.9,1.25,2.69,2.66,2.69c1.01,0,1.62-0.18,2.15-0.4l0.24,1.01    c-0.5,0.22-1.34,0.48-2.58,0.48c-2.39,0-3.81-1.57-3.81-3.91s1.38-4.18,3.63-4.18c2.53,0,3.2,2.22,3.2,3.65    c0,0.29-0.03,0.51-0.05,0.66H203.75z M207.88,45.42c0.02-0.9-0.37-2.29-1.95-2.29c-1.42,0-2.05,1.31-2.16,2.29H207.88z"/>
		<path class="st0" d="M210.79,48.61c0.42,0.27,1.15,0.56,1.86,0.56c1.02,0,1.5-0.51,1.5-1.15c0-0.67-0.4-1.04-1.44-1.42    c-1.39-0.5-2.05-1.26-2.05-2.19c0-1.25,1.01-2.27,2.67-2.27c0.78,0,1.47,0.22,1.9,0.48l-0.35,1.02c-0.3-0.19-0.86-0.45-1.58-0.45    c-0.83,0-1.3,0.48-1.3,1.06c0,0.64,0.46,0.93,1.47,1.31c1.34,0.51,2.03,1.18,2.03,2.34c0,1.36-1.06,2.32-2.9,2.32    c-0.85,0-1.63-0.21-2.18-0.53L210.79,48.61z"/>
		<path class="st0" d="M220.86,50.05v-6.67h-1.09V42.3h1.09v-0.37c0-1.09,0.24-2.08,0.9-2.71c0.53-0.51,1.23-0.72,1.89-0.72    c0.5,0,0.93,0.11,1.2,0.22l-0.19,1.09c-0.21-0.1-0.5-0.18-0.9-0.18c-1.2,0-1.5,1.06-1.5,2.24v0.42h1.87v1.07h-1.87v6.67H220.86z"/>
		<path class="st0" d="M232.19,46.11c0,2.87-1.98,4.11-3.86,4.11c-2.1,0-3.71-1.54-3.71-3.99c0-2.59,1.7-4.11,3.84-4.11    C230.68,42.13,232.19,43.74,232.19,46.11z M226.04,46.19c0,1.7,0.98,2.98,2.35,2.98c1.34,0,2.35-1.26,2.35-3.01    c0-1.31-0.66-2.98-2.32-2.98C226.76,43.18,226.04,44.72,226.04,46.19z"/>
		<path class="st0" d="M233.96,44.72c0-0.91-0.02-1.7-0.06-2.42h1.23l0.05,1.52h0.06c0.35-1.04,1.2-1.7,2.14-1.7    c0.16,0,0.27,0.02,0.4,0.05v1.33c-0.14-0.03-0.29-0.05-0.48-0.05c-0.99,0-1.7,0.75-1.89,1.81c-0.03,0.19-0.06,0.42-0.06,0.66v4.13    h-1.39V44.72z"/>
		<path class="st0" d="M250.84,49.57c-0.62,0.22-1.86,0.59-3.31,0.59c-1.63,0-2.98-0.42-4.03-1.42c-0.93-0.9-1.5-2.34-1.5-4.02    c0.02-3.22,2.23-5.57,5.84-5.57c1.25,0,2.23,0.27,2.69,0.5l-0.34,1.14c-0.58-0.26-1.3-0.46-2.38-0.46c-2.62,0-4.34,1.63-4.34,4.34    c0,2.74,1.65,4.35,4.16,4.35c0.91,0,1.54-0.13,1.86-0.29V45.5h-2.19v-1.12h3.55V49.57z"/>
		<path class="st0" d="M260.01,46.11c0,2.87-1.98,4.11-3.86,4.11c-2.1,0-3.71-1.54-3.71-3.99c0-2.59,1.7-4.11,3.84-4.11    C258.51,42.13,260.01,43.74,260.01,46.11z M253.86,46.19c0,1.7,0.98,2.98,2.35,2.98c1.34,0,2.35-1.26,2.35-3.01    c0-1.31-0.66-2.98-2.32-2.98C254.58,43.18,253.86,44.72,253.86,46.19z"/>
		<path class="st0" d="M261.78,38.69h1.41v11.36h-1.41V38.69z"/>
		<path class="st0" d="M272.25,38.69v9.36c0,0.69,0.02,1.47,0.06,2h-1.26l-0.06-1.34h-0.03c-0.43,0.86-1.38,1.52-2.64,1.52    c-1.87,0-3.31-1.58-3.31-3.94c-0.02-2.58,1.58-4.16,3.47-4.16c1.18,0,1.98,0.56,2.34,1.18h0.03v-4.63H272.25z M270.84,45.46    c0-0.18-0.02-0.42-0.06-0.59c-0.21-0.9-0.98-1.63-2.03-1.63c-1.46,0-2.32,1.28-2.32,2.99c0,1.57,0.77,2.87,2.29,2.87    c0.95,0,1.81-0.62,2.07-1.68c0.05-0.19,0.06-0.38,0.06-0.61V45.46z"/>
		<path class="st0" d="M274.39,48.61c0.42,0.27,1.15,0.56,1.86,0.56c1.02,0,1.5-0.51,1.5-1.15c0-0.67-0.4-1.04-1.44-1.42    c-1.39-0.5-2.05-1.26-2.05-2.19c0-1.25,1.01-2.27,2.67-2.27c0.78,0,1.47,0.22,1.9,0.48l-0.35,1.02c-0.3-0.19-0.86-0.45-1.58-0.45    c-0.83,0-1.3,0.48-1.3,1.06c0,0.64,0.46,0.93,1.47,1.31c1.34,0.51,2.03,1.18,2.03,2.34c0,1.36-1.06,2.32-2.9,2.32    c-0.85,0-1.63-0.21-2.18-0.53L274.39,48.61z"/>
		<path class="st0" d="M287.93,46.11c0,2.87-1.99,4.11-3.86,4.11c-2.1,0-3.71-1.54-3.71-3.99c0-2.59,1.7-4.11,3.84-4.11    C286.43,42.13,287.93,43.74,287.93,46.11z M281.79,46.19c0,1.7,0.98,2.98,2.35,2.98c1.34,0,2.35-1.26,2.35-3.01    c0-1.31-0.66-2.98-2.32-2.98C282.5,43.18,281.79,44.72,281.79,46.19z"/>
		<path class="st0" d="M296.19,47.94c0,0.8,0.02,1.5,0.06,2.11H295l-0.08-1.26h-0.03c-0.37,0.62-1.18,1.44-2.56,1.44    c-1.22,0-2.67-0.67-2.67-3.39V42.3h1.41v4.29c0,1.47,0.45,2.46,1.73,2.46c0.94,0,1.6-0.66,1.86-1.28    c0.08-0.21,0.13-0.46,0.13-0.72V42.3h1.41V47.94z"/>
		<path class="st0" d="M298.52,44.72c0-0.91-0.02-1.7-0.06-2.42h1.23l0.05,1.52h0.06c0.35-1.04,1.2-1.7,2.14-1.7    c0.16,0,0.27,0.02,0.4,0.05v1.33c-0.14-0.03-0.29-0.05-0.48-0.05c-0.99,0-1.7,0.75-1.89,1.81c-0.03,0.19-0.06,0.42-0.06,0.66v4.13    h-1.39V44.72z"/>
		<path class="st0" d="M309.11,49.76c-0.37,0.19-1.18,0.45-2.22,0.45c-2.34,0-3.86-1.58-3.86-3.95c0-2.38,1.63-4.11,4.16-4.11    c0.83,0,1.57,0.21,1.95,0.4l-0.32,1.09c-0.34-0.19-0.86-0.37-1.63-0.37c-1.78,0-2.74,1.31-2.74,2.93c0,1.79,1.15,2.9,2.69,2.9    c0.8,0,1.33-0.21,1.73-0.38L309.11,49.76z"/>
		<path class="st0" d="M311.45,46.43c0.03,1.9,1.25,2.69,2.66,2.69c1.01,0,1.62-0.18,2.15-0.4l0.24,1.01    c-0.5,0.22-1.34,0.48-2.58,0.48c-2.38,0-3.81-1.57-3.81-3.91s1.38-4.18,3.63-4.18c2.53,0,3.2,2.22,3.2,3.65    c0,0.29-0.03,0.51-0.05,0.66H311.45z M315.58,45.42c0.02-0.9-0.37-2.29-1.95-2.29c-1.42,0-2.05,1.31-2.16,2.29H315.58z"/>
		<path class="st0" d="M317.58,52.02c0.35-0.94,0.78-2.66,0.96-3.83l1.57-0.16c-0.37,1.36-1.07,3.14-1.52,3.89L317.58,52.02z"/>
		<path class="st0" d="M325.05,48.35c0.62,0.38,1.54,0.7,2.5,0.7c1.42,0,2.26-0.75,2.26-1.84c0-1.01-0.58-1.58-2.03-2.14    c-1.76-0.62-2.85-1.54-2.85-3.06c0-1.68,1.39-2.93,3.49-2.93c1.1,0,1.91,0.26,2.38,0.53l-0.38,1.14    c-0.35-0.19-1.07-0.51-2.05-0.51c-1.47,0-2.03,0.88-2.03,1.62c0,1.01,0.66,1.5,2.15,2.08c1.82,0.7,2.75,1.58,2.75,3.17    c0,1.67-1.23,3.11-3.78,3.11c-1.04,0-2.18-0.3-2.75-0.69L325.05,48.35z"/>
		<path class="st0" d="M340.19,46.11c0,2.87-1.99,4.11-3.86,4.11c-2.1,0-3.71-1.54-3.71-3.99c0-2.59,1.7-4.11,3.84-4.11    C338.68,42.13,340.19,43.74,340.19,46.11z M334.04,46.19c0,1.7,0.98,2.98,2.35,2.98c1.34,0,2.35-1.26,2.35-3.01    c0-1.31-0.66-2.98-2.32-2.98C334.76,43.18,334.04,44.72,334.04,46.19z"/>
		<path class="st0" d="M348.44,47.94c0,0.8,0.02,1.5,0.06,2.11h-1.25l-0.08-1.26h-0.03c-0.37,0.62-1.18,1.44-2.56,1.44    c-1.22,0-2.67-0.67-2.67-3.39V42.3h1.41v4.29c0,1.47,0.45,2.46,1.73,2.46c0.94,0,1.6-0.66,1.86-1.28    c0.08-0.21,0.13-0.46,0.13-0.72V42.3h1.41V47.94z"/>
		<path class="st0" d="M350.78,44.72c0-0.91-0.02-1.7-0.06-2.42h1.23l0.05,1.52h0.06c0.35-1.04,1.2-1.7,2.14-1.7    c0.16,0,0.27,0.02,0.4,0.05v1.33c-0.14-0.03-0.29-0.05-0.48-0.05c-0.99,0-1.7,0.75-1.89,1.81c-0.03,0.19-0.06,0.42-0.06,0.66v4.13    h-1.39V44.72z"/>
		<path class="st0" d="M361.37,49.76c-0.37,0.19-1.18,0.45-2.22,0.45c-2.34,0-3.86-1.58-3.86-3.95c0-2.38,1.63-4.11,4.16-4.11    c0.83,0,1.57,0.21,1.95,0.4l-0.32,1.09c-0.34-0.19-0.86-0.37-1.63-0.37c-1.78,0-2.74,1.31-2.74,2.93c0,1.79,1.15,2.9,2.69,2.9    c0.8,0,1.33-0.21,1.73-0.38L361.37,49.76z"/>
		<path class="st0" d="M363.71,46.43c0.03,1.9,1.25,2.69,2.66,2.69c1.01,0,1.62-0.18,2.15-0.4l0.24,1.01    c-0.5,0.22-1.34,0.48-2.58,0.48c-2.38,0-3.81-1.57-3.81-3.91s1.38-4.18,3.63-4.18c2.53,0,3.2,2.22,3.2,3.65    c0,0.29-0.03,0.51-0.05,0.66H363.71z M367.83,45.42c0.02-0.9-0.37-2.29-1.95-2.29c-1.42,0-2.05,1.31-2.16,2.29H367.83z"/>
		<path class="st0" d="M378.62,50.05l-0.11-0.98h-0.05c-0.43,0.61-1.26,1.15-2.37,1.15c-1.57,0-2.37-1.1-2.37-2.22    c0-1.87,1.66-2.9,4.66-2.88v-0.16c0-0.64-0.18-1.79-1.76-1.79c-0.72,0-1.47,0.22-2.02,0.58l-0.32-0.93    c0.64-0.42,1.57-0.69,2.54-0.69c2.37,0,2.95,1.62,2.95,3.17v2.9c0,0.67,0.03,1.33,0.13,1.86H378.62z M378.41,46.1    c-1.54-0.03-3.28,0.24-3.28,1.74c0,0.91,0.61,1.34,1.33,1.34c1.01,0,1.65-0.64,1.87-1.3c0.05-0.14,0.08-0.3,0.08-0.45V46.1z"/>
		<path class="st0" d="M382.04,44.4c0-0.8-0.02-1.46-0.06-2.1h1.25l0.08,1.28h0.03c0.38-0.74,1.28-1.46,2.56-1.46    c1.07,0,2.74,0.64,2.74,3.3v4.63h-1.41v-4.47c0-1.25-0.46-2.29-1.79-2.29c-0.93,0-1.65,0.66-1.89,1.44    c-0.06,0.18-0.1,0.42-0.1,0.66v4.66h-1.41V44.4z"/>
		<path class="st0" d="M397.61,38.69v9.36c0,0.69,0.02,1.47,0.06,2h-1.26l-0.06-1.34h-0.03c-0.43,0.86-1.38,1.52-2.64,1.52    c-1.87,0-3.31-1.58-3.31-3.94c-0.02-2.58,1.58-4.16,3.47-4.16c1.18,0,1.98,0.56,2.34,1.18h0.03v-4.63H397.61z M396.2,45.46    c0-0.18-0.02-0.42-0.06-0.59c-0.21-0.9-0.98-1.63-2.03-1.63c-1.46,0-2.32,1.28-2.32,2.99c0,1.57,0.77,2.87,2.29,2.87    c0.95,0,1.81-0.62,2.07-1.68c0.05-0.19,0.06-0.38,0.06-0.61V45.46z"/>
		<path class="st0" d="M403.27,50.05c0.03-0.53,0.06-1.31,0.06-2v-9.36h1.39v4.87h0.03c0.5-0.86,1.39-1.42,2.64-1.42    c1.92,0,3.28,1.6,3.26,3.95c0,2.77-1.74,4.15-3.47,4.15c-1.12,0-2.02-0.43-2.59-1.46h-0.05l-0.06,1.28H403.27z M404.73,46.95    c0,0.18,0.03,0.35,0.06,0.51c0.27,0.98,1.09,1.65,2.11,1.65c1.47,0,2.35-1.2,2.35-2.98c0-1.55-0.8-2.88-2.3-2.88    c-0.96,0-1.86,0.66-2.15,1.73c-0.03,0.16-0.08,0.35-0.08,0.58V46.95z"/>
		<path class="st0" d="M413.22,46.43c0.03,1.9,1.25,2.69,2.66,2.69c1.01,0,1.62-0.18,2.14-0.4l0.24,1.01    c-0.5,0.22-1.34,0.48-2.58,0.48c-2.38,0-3.81-1.57-3.81-3.91s1.38-4.18,3.63-4.18c2.53,0,3.2,2.22,3.2,3.65    c0,0.29-0.03,0.51-0.05,0.66H413.22z M417.35,45.42c0.02-0.9-0.37-2.29-1.95-2.29c-1.42,0-2.05,1.31-2.16,2.29H417.35z"/>
		<path class="st0" d="M420.97,42.3l1.7,4.58c0.18,0.51,0.37,1.12,0.5,1.58h0.03c0.14-0.46,0.3-1.06,0.5-1.62l1.54-4.55h1.49    l-2.11,5.52c-1.01,2.66-1.7,4.02-2.66,4.85c-0.69,0.61-1.38,0.85-1.73,0.91l-0.35-1.18c0.35-0.11,0.82-0.34,1.23-0.69    c0.38-0.3,0.86-0.85,1.18-1.57c0.06-0.14,0.11-0.26,0.11-0.34s-0.03-0.19-0.1-0.37l-2.86-7.14H420.97z"/>
		<path class="st0" d="M434.84,46.11c0,2.87-1.99,4.11-3.86,4.11c-2.1,0-3.71-1.54-3.71-3.99c0-2.59,1.7-4.11,3.84-4.11    C433.34,42.13,434.84,43.74,434.84,46.11z M428.7,46.19c0,1.7,0.98,2.98,2.35,2.98c1.34,0,2.35-1.26,2.35-3.01    c0-1.31-0.66-2.98-2.32-2.98C429.42,43.18,428.7,44.72,428.7,46.19z"/>
		<path class="st0" d="M436.62,44.4c0-0.8-0.02-1.46-0.06-2.1h1.25l0.08,1.28h0.03c0.38-0.74,1.28-1.46,2.56-1.46    c1.07,0,2.74,0.64,2.74,3.3v4.63h-1.41v-4.47c0-1.25-0.46-2.29-1.79-2.29c-0.93,0-1.65,0.66-1.89,1.44    c-0.06,0.18-0.1,0.42-0.1,0.66v4.66h-1.41V44.4z"/>
		<path class="st0" d="M452.19,38.69v9.36c0,0.69,0.02,1.47,0.06,2h-1.26l-0.06-1.34h-0.03c-0.43,0.86-1.38,1.52-2.64,1.52    c-1.87,0-3.31-1.58-3.31-3.94c-0.02-2.58,1.58-4.16,3.47-4.16c1.18,0,1.98,0.56,2.34,1.18h0.03v-4.63H452.19z M450.78,45.46    c0-0.18-0.02-0.42-0.06-0.59c-0.21-0.9-0.98-1.63-2.03-1.63c-1.46,0-2.32,1.28-2.32,2.99c0,1.57,0.77,2.87,2.29,2.87    c0.95,0,1.81-0.62,2.07-1.68c0.05-0.19,0.06-0.38,0.06-0.61V45.46z"/>
	</g>
</g>
</svg>