<svg xmlns="http://www.w3.org/2000/svg" width="32" height="32" viewBox="0 0 3200 3200" shape-rendering="geometricPrecision" text-rendering="geometricPrecision" image-rendering="optimizeQuality" fill-rule="evenodd" clip-rule="evenodd"><defs><style><![CDATA[
    .fil0 {fill:url(#id0);fill-rule:nonzero}
   ]]></style><linearGradient id="id0" gradientUnits="userSpaceOnUse" x1="152.015" y1="158.748" x2="3047.75" y2="3054.48"><stop offset="0" stop-color="#959595"/><stop offset="1" stop-color="gray"/></linearGradient></defs><path class="fil0" d="M1723 185l345 884 910 71c119 9 166 165 76 244l-697 617 217 928c28 121-99 214-198 150l-776-503-776 503c-101 65-225-32-198-150l217-928-697-617c-91-81-41-235 76-244l910-71 345-884c45-116 200-113 245 0zm70 991l-193-493-193 493-67 173-185 14-540 42 424 375 132 117-40 170-127 545 436-283 160-104 160 104 436 283-127-545-40-170 132-117 424-375-540-42-185-14-67-173z" id="Layer_x0020_1"/></svg>