<svg xmlns="http://www.w3.org/2000/svg" width="32" height="32" viewBox="0 0 320000 320000" shape-rendering="geometricPrecision" text-rendering="geometricPrecision" image-rendering="optimizeQuality" fill-rule="evenodd" clip-rule="evenodd"><defs><style><![CDATA[
    .fil1 {fill:url(#id0);fill-rule:nonzero}
    .fil0 {fill:url(#id1);fill-rule:nonzero}
   ]]></style><linearGradient id="id0" gradientUnits="userSpaceOnUse" x1="-24993.4" y1="54297.9" x2="190687" y2="269978"><stop offset="0" stop-color="#5BC4CF"/><stop offset="1" stop-color="#4195C0"/></linearGradient><linearGradient id="id1" gradientUnits="userSpaceOnUse" x1="15201.5" y1="15874.8" x2="304775" y2="305448"><stop offset="0" stop-color="#959595"/><stop offset="1" stop-color="gray"/></linearGradient></defs><g id="Layer_x0020_1"><path class="fil0" d="M172284 18509l34490 88351 90973 7052c11906 862 16583 16513 7618 24415l-69653 61680 21722 92792c2788 12131-9922 21403-19796 15036l-77579-50306-77579 50306c-10123 6532-22537-3248-19796-15036l21722-92792-69653-61680c-9119-8091-4075-23541 7618-24403v-12l90973-7052 34490-88351c4500-11552 20032-11327 24450 0zm7040 99076l-19265-49349-19265 49349-6733 17257-18521 1429-54014 4181 42368 37525 13229 11693-3992 17021-12745 54451 43644-28301 16028-10394 16028 10394 43644 28301-12745-54451-3992-17021 13229-11693 42368-37525-54014-4181-18521-1429-6733-17257z"/><path class="fil1" d="M160059 257528l-77579 50306c-10123 6532-22537-3248-19796-15036l21722-92792-69653-61680c-9119-8091-4075-23541 7618-24403v-12l90973-7052 34490-88351c2244-5764 7241-8599 12225-8575v247595z"/></g></svg>