<?xml version="1.0" encoding="UTF-8"?>
<!DOCTYPE svg PUBLIC "-//W3C//DTD SVG 1.1//EN" "http://www.w3.org/Graphics/SVG/1.1/DTD/svg11.dtd">
<!-- Creator: CorelDRAW X5 -->
<svg xmlns="http://www.w3.org/2000/svg" xml:space="preserve" width="32px" height="32px" style="shape-rendering:geometricPrecision; text-rendering:geometricPrecision; image-rendering:optimizeQuality; fill-rule:evenodd; clip-rule:evenodd"
viewBox="0 0 3200000 3200000"
 xmlns:xlink="http://www.w3.org/1999/xlink">
 <defs>
  <style type="text/css">
   <![CDATA[
    .fil0 {fill:#373435;fill-opacity:0.501961}
    .fil1 {fill:url(#id0)}
   ]]>
  </style>
  <linearGradient id="id0" gradientUnits="userSpaceOnUse" x1="1.6e+006" y1="100044" x2="1.6e+006" y2="3.10019e+006">
   <stop offset="0" style="stop-color:#F74843"/>
   <stop offset="1" style="stop-color:#B83430"/>
  </linearGradient>
 </defs>
 <g id="Layer_x0020_1">
  <metadata id="CorelCorpID_0Corel-Layer"/>
  <path class="fil0" d="M558453 181781l1100133 0 1100133 0c220168,0 399941,180009 399941,399941l0 1100133 0 1100133c0,220168 -179773,399941 -399941,399941l-1100133 0 -1100133 0c-219932,0 -399941,-179773 -399941,-399941l0 -1100133 0 -1100133c0,-219932 180009,-399941 399941,-399941zm147999 2384881l-4134 -4370 836616 -1327270 -145519 -362498 -270250 0 0 -259619 482504 0 660387 1649018 267769 -91304 95792 279935 -530695 181308 -414115 -1032925 -609951 967725 -368404 0z"/>
  <path class="fil1" d="M499867 100044l1100133 0 1100133 0c220168,0 399941,180009 399941,399941l0 1100133 0 1100133c0,220168 -179773,399941 -399941,399941l-1100133 0 -1100133 0c-219932,0 -399941,-179773 -399941,-399941l0 -1100133 0 -1100133c0,-219932 180009,-399941 399941,-399941zm147999 2384881l-4134 -4370 836616 -1327270 -145519 -362498 -270250 0 0 -259619 482504 0 660387 1649018 267769 -91304 95792 279935 -530695 181308 -414115 -1032925 -609951 967725 -368404 0z"/>
 </g>
</svg>
