<svg xmlns="http://www.w3.org/2000/svg" width="32" height="32" viewBox="0 0 320000 320000" shape-rendering="geometricPrecision" text-rendering="geometricPrecision" image-rendering="optimizeQuality" fill-rule="evenodd" clip-rule="evenodd"><defs><style><![CDATA[
    .fil0 {fill:#373435;fill-opacity:0.501961}
    .fil1 {fill:url(#id0)}
   ]]></style><linearGradient id="id0" gradientUnits="userSpaceOnUse" x1="160012" y1="237992" x2="160012" y2="81984.3"><stop offset="0" stop-color="#4B4B4D"/><stop offset=".329" stop-color="#67686A"/><stop offset="1" stop-color="#848688"/></linearGradient></defs><g id="Layer_x0020_1"><path class="fil0" d="M164996 14989c82847 0 150007 67161 150007 150007 0 82847-67161 150007-150007 150007-82847 0-150007-67161-150007-150007 0-82847 67161-150007 150007-150007zM76610 248634h36829v-90713h125238l35329 61196c8115-16300 12674-34679 12674-54121 0-67208-54475-121683-121683-121683S43314 97788 43314 164996c0 32399 12650 61834 33297 83638z"/><path class="fil1" d="M160012 9981c82847 0 150007 67161 150007 150007 0 82847-67161 150007-150007 150007-82847 0-150007-67161-150007-150007 0-82847 67161-150007 150007-150007zM71626 243626h36829v-90713h125238l35329 61196c8115-16300 12674-34679 12674-54121 0-67208-54475-121683-121683-121683S38330 92780 38330 159988c0 32399 12650 61834 33297 83638z"/></g></svg>