<svg xmlns="http://www.w3.org/2000/svg" width="32" height="32" viewBox="0 0 320000 320000" shape-rendering="geometricPrecision" text-rendering="geometricPrecision" image-rendering="optimizeQuality" fill-rule="evenodd" clip-rule="evenodd"><defs><style><![CDATA[
    .fil3 {fill:#FEFEFE}
    .fil0 {fill:#373435;fill-opacity:0.501961}
    .fil2 {fill:url(#id0)}
    .fil1 {fill:url(#id1)}
   ]]></style><linearGradient id="id0" gradientUnits="userSpaceOnUse" x1="85008.1" y1="111986" x2="85008.1" y2="207991"><stop offset="0" stop-color="#00A859"/><stop offset="1" stop-color="#00703A"/></linearGradient><linearGradient id="id1" gradientUnits="userSpaceOnUse" x1="235016" y1="111986" x2="235016" y2="207991"><stop offset="0" stop-color="#FF564A"/><stop offset="1" stop-color="#D12114"/></linearGradient></defs><g id="Layer_x0020_1"><g id="_152214776"><path class="fil0" d="M164996 315004h64420v-8930c-21521-20375-37466-64657-41211-118022 54369 3461 99607 19536 120266 41364h6532V100575h-8930c-20375 21521-64657 37466-118022 41211 3461-54369 19536-99607 41364-120266v-6532h-64421v300015z"/><path class="fil0" d="M164996 315004c-82847 0-150007-67161-150007-150007 0-82847 67161-150007 150007-150007v300015z"/></g><path class="fil1" d="M160012 309996h64420v-8930c-21521-20375-37466-64657-41211-118022 54369 3461 99607 19536 120266 41364h6532V95567h-8930c-20375 21521-64657 37466-118022 41211 3461-54369 19536-99607 41364-120266V9980h-64421v300015z"/><path class="fil2" d="M160012 309996c-82847 0-150007-67161-150007-150007 0-82847 67161-150007 150007-150007v300015z"/><path class="fil3" d="M160012 33994c-69582 0-125994 56412-125994 125994s56412 125994 125994 125994V33993zm0 223546c-20800 0-40077-6520-55904-17611l55904-40785v58397zm-59849-20517c-22938-17847-37703-45723-37703-77035 0-9910 1488-19466 4229-28478l54971 39781-21497 65732zM68520 126077c13442-36226 47766-62306 88363-63582l-20564 63712-67799-130z"/></g></svg>