<svg xmlns="http://www.w3.org/2000/svg" width="32" height="32" viewBox="0 0 320000 320000" shape-rendering="geometricPrecision" text-rendering="geometricPrecision" image-rendering="optimizeQuality" fill-rule="evenodd" clip-rule="evenodd"><defs><style><![CDATA[
    .fil3 {fill:#FEFEFE}
    .fil0 {fill:#373435;fill-opacity:0.501961}
    .fil2 {fill:url(#id0)}
    .fil1 {fill:url(#id1)}
   ]]></style><linearGradient id="id0" gradientUnits="userSpaceOnUse" x1="75003.7" y1="119155" x2="75003.7" y2="200797"><stop offset="0" stop-color="#00A859"/><stop offset="1" stop-color="#00703A"/></linearGradient><linearGradient id="id1" gradientUnits="userSpaceOnUse" x1="225011" y1="119155" x2="225011" y2="200797"><stop offset="0" stop-color="#FF564A"/><stop offset="1" stop-color="#D12114"/></linearGradient></defs><g id="Layer_x0020_1"><path class="fil0" d="M275919 39994c21580 0 39085 17505 39085 39085 0 4583-791 8989-2244 13064-272 1098-1205 3047-1724 4122-17198 40809-33899 83036-51983 123325-17316 44518-67184 74638-114065 75512-70456 0-129999-54511-129999-124967S74531 39995 144988 39995h130932z"/><path class="fil1" d="M270935 32423c21580 0 39085 17505 39085 39085 0 4583-791 8989-2244 13064 484 484-47412 113415-53707 127447-17316 44518-67184 74638-114065 75512v-20399h43585v-6378c-15379-14552-26753-46172-29435-84299 38837 2469 71141 13961 85906 29553h4666v-92036h-6378c-14564 15379-46183 26765-84311 29446 2480-38837 13961-71153 29553-85906v-4666h-43585V32424h130932z"/><path class="fil2" d="M140003 287530c-70456 0-129999-54511-129999-124967S69546 32423 140003 32423v255107z"/><path class="fil3" d="M140003 55420c-59176 0-109576 47967-109576 107143s50400 107143 109576 107143V55420zm0 190096c-17682 0-36510-5540-49975-14965l49975-35010v49975zm-53329-17446c-19501-15178-32057-38872-32057-65507 0-8422 1264-16560 3591-24226l46750 33840-18284 55893zm-26907-94351c11422-30805 43053-52975 77579-54062l-19926 54180-57652-118zM140003 267131h43585v-6378c-15379-14552-26753-46172-29435-84299 38837 2469 71141 13961 85906 29553h4666v-92036h-6378c-14564 15379-46183 26765-84311 29446 2480-38837 13961-71153 29553-85906v-4666h-43585v214286z"/></g></svg>