<svg xmlns="http://www.w3.org/2000/svg" width="32" height="32" viewBox="0 0 320000 320000" xmlns:xlink="http://www.w3.org/1999/xlink" shape-rendering="geometricPrecision" text-rendering="geometricPrecision" image-rendering="optimizeQuality" fill-rule="evenodd" clip-rule="evenodd"><defs><style><![CDATA[
    .fil0 {fill:#373435;fill-opacity:0.501961}
    .fil1 {fill:#373435;fill-rule:nonzero;fill-opacity:0.501961}
    .fil2 {fill:url(#id0)}
    .fil3 {fill:url(#id1);fill-rule:nonzero}
   ]]></style><linearGradient id="id0" gradientUnits="userSpaceOnUse" x1="160012" y1="93654.2" x2="160012" y2="226322"><stop offset="0" stop-color="#FFCB3D"/><stop offset="1" stop-color="#F2B100"/></linearGradient><linearGradient id="id1" gradientUnits="userSpaceOnUse" xlink:href="#id0" x1="137570" y1="135467" x2="137570" y2="184497"/></defs><g id="Layer_x0020_1"><g id="_152553488"><path class="fil0" d="M275919 39876h130c21533 71 38955 17552 38955 39085 0 4583-791 8989-2244 13064l12 12-24 35c-496 1406-1075 2764-1713 4075l-49750 118045c-697 1784-1453 3543-2232 5280l-83 213c-19962 44400-64574 75323-116415 75323-70456 0-127565-57109-127565-127565S72099 39878 142555 39878h133365zM142554 66806c55585 0 100635 45061 100635 100635s-45049 100635-100635 100635c-55574 0-100635-45061-100635-100635S86980 66806 142554 66806z"/><path class="fil1" d="M93749 120301h53306v14044h-38411v24958h24084v13914h-24084v27450h38411v13914H93749v-94280zm82858 21403h-13607v-12875c6839 0 14906-1098 16536-8528h11823v94280h-14753v-72878z"/></g><g id="_152554904"><path class="fil2" d="M270935 32423h130c21533 71 38955 17552 38955 39085 0 4583-791 8989-2244 13064l12 12-24 35c-496 1406-1075 2764-1713 4075l-49750 118045c-697 1784-1453 3543-2232 5280l-83 213c-19962 44400-64574 75323-116415 75323-70456 0-127565-57109-127565-127565S67115 32425 137571 32425h133365zM137570 59353c55585 0 100635 45061 100635 100635s-45049 100635-100635 100635c-55574 0-100635-45061-100635-100635S81996 59353 137570 59353z"/><path class="fil3" d="M88764 112848h53306v14044h-38411v24958h24084v13914h-24084v27450h38411v13914H88764v-94280zm82858 21403h-13607v-12875c6839 0 14906-1098 16536-8528h11823v94280h-14753v-72878z"/></g></g></svg>