<svg xmlns="http://www.w3.org/2000/svg" width="32" height="32" viewBox="0 0 320000 320000" xmlns:xlink="http://www.w3.org/1999/xlink" shape-rendering="geometricPrecision" text-rendering="geometricPrecision" image-rendering="optimizeQuality" fill-rule="evenodd" clip-rule="evenodd"><defs><style><![CDATA[
    .fil0 {fill:#373435;fill-opacity:0.501961}
    .fil1 {fill:#373435;fill-rule:nonzero;fill-opacity:0.501961}
    .fil2 {fill:url(#id0)}
    .fil3 {fill:url(#id1);fill-rule:nonzero}
   ]]></style><linearGradient id="id0" gradientUnits="userSpaceOnUse" x1="160012" y1="93654.2" x2="160012" y2="226322"><stop offset="0" stop-color="#FFCB3D"/><stop offset="1" stop-color="#F2B100"/></linearGradient><linearGradient id="id1" gradientUnits="userSpaceOnUse" xlink:href="#id0" x1="137570" y1="135479" x2="137570" y2="184497"/></defs><g id="Layer_x0020_1"><g id="_152555192"><path class="fil0" d="M275919 39876h130c21533 71 38955 17552 38955 39085 0 4583-791 8989-2244 13064l12 12-24 35c-496 1406-1075 2764-1713 4075l-49750 118045c-697 1784-1453 3543-2232 5280l-83 213c-19962 44400-64574 75323-116415 75323-70456 0-127565-57109-127565-127565S72099 39878 142555 39878h133365zM142554 66806c55585 0 100635 45061 100635 100635s-45049 100635-100635 100635c-55574 0-100635-45061-100635-100635S86980 66806 142554 66806z"/><path class="fil1" d="M79091 121589h53306v13867H93986v24604h24072v13725H93986v27072h38411v13725H79091v-92993zm68472 85611c0-5268 472-9922 1394-13985 933-4063 2327-7689 4181-10878s4240-6048 7170-8552c2917-2504 6331-4784 10229-6863 2599-1382 5150-2587 7654-3626s4677-2197 6544-3496c1854-1299 3354-2894 4524-4796 1158-1902 1736-4441 1736-7642 0-3886-1110-6886-3343-9000-2232-2114-5611-3166-10158-3166-3992 0-7536 638-10654 1937-3106 1299-5953 3886-8552 7772l-10028-12048c3532-4229 7725-7382 12603-9449 4866-2079 10690-3106 17469-3106 3981 0 7701 579 11127 1748 3437 1158 6355 2870 8776 5114 2410 2244 4311 5008 5705 8292 1394 3272 2091 6992 2091 11138 0 4394-661 8197-1949 11386-1299 3201-3071 5988-5292 8363-2232 2374-4878 4488-7937 6343-3059 1854-6355 3603-9886 5244-5929 2764-10158 6048-12662 9851-2504 3792-3756 8150-3756 13075h41482v13725h-58467v-7382z"/></g><g id="_152215808"><path class="fil2" d="M270935 32423h130c21533 71 38955 17552 38955 39085 0 4583-791 8989-2244 13064l12 12-24 35c-496 1406-1075 2764-1713 4075l-49750 118045c-697 1784-1453 3543-2232 5280l-83 213c-19962 44400-64574 75323-116415 75323-70456 0-127565-57109-127565-127565S67115 32425 137571 32425h133365zM137570 59353c55585 0 100635 45061 100635 100635s-45049 100635-100635 100635c-55574 0-100635-45061-100635-100635S81996 59353 137570 59353z"/><path class="fil3" d="M74106 114136h53306v13867H89001v24604h24072v13725H89001v27072h38411v13725H74106v-92993zm68472 85611c0-5268 472-9922 1394-13985 933-4063 2327-7689 4181-10878s4240-6048 7170-8552c2917-2504 6331-4784 10229-6863 2599-1382 5150-2587 7654-3626s4677-2197 6544-3496c1854-1299 3354-2894 4524-4796 1158-1902 1736-4441 1736-7642 0-3886-1110-6886-3343-9000-2232-2114-5611-3166-10158-3166-3992 0-7536 638-10654 1937-3106 1299-5953 3886-8552 7772l-10028-12048c3532-4229 7725-7382 12603-9449 4866-2079 10690-3106 17469-3106 3981 0 7701 579 11127 1748 3437 1158 6355 2870 8776 5114 2410 2244 4311 5008 5705 8292 1394 3272 2091 6992 2091 11138 0 4394-661 8197-1949 11386-1299 3201-3071 5988-5292 8363-2232 2374-4878 4488-7937 6343-3059 1854-6355 3603-9886 5244-5929 2764-10158 6048-12662 9851-2504 3792-3756 8150-3756 13075h41482v13725h-58467v-7382z"/></g></g></svg>