<svg xmlns="http://www.w3.org/2000/svg" width="32" height="32" viewBox="0 0 320000 320000" shape-rendering="geometricPrecision" text-rendering="geometricPrecision" image-rendering="optimizeQuality" fill-rule="evenodd" clip-rule="evenodd"><defs><style><![CDATA[
    .fil0 {fill:#373435;fill-opacity:0.501961}
    .fil1 {fill:url(#id0)}
   ]]></style><linearGradient id="id0" gradientUnits="userSpaceOnUse" x1="160012" y1="310692" x2="160012" y2="9980.81"><stop offset="0" stop-color="#2AA0F7"/><stop offset=".529" stop-color="#43B3E4"/><stop offset="1" stop-color="#5CC6D0"/></linearGradient></defs><g id="Layer_x0020_1"><path class="fil0" d="M155016 14989c24143 0 43301 8457 57582 21887V16725h52408l-12 201341h12l-12 3284v24c-12 5918-118 11989-780 18922-791 8221-2362 17658-6969 26824-4595 9166-12225 18060-20918 25690s-18462 14009-31478 17824-29305 5067-44801 4004c-15497-1063-30214-4441-41860-9083s-20221-10548-27332-17587c-7122-7040-12792-15225-16288-24982-3508-9756-4843-21084-6177-32411h50034c945 6130 1890 12272 4642 18013 2752 5752 7323 11103 13961 14953 6650 3851 15391 6213 24084 6685s17351-945 25100-4760c7748-3815 14587-10028 18840-16324 4252-6296 5894-12674 6721-17269 768-4240 827-6981 827-9603v-22702c-14280 13430-33439 21875-57582 21875-59979 0-89213-52125-89213-103222S95039 14988 155018 14988zm13323 44246c30545 0 45427 30627 45427 60653 0 30013-14883 60641-45427 60641-30533 0-45427-30627-45427-60641 0-30025 14894-60653 45427-60653z"/><path class="fil1" d="M149629 9981c24143 0 43301 8457 57582 21887V11717h52408l-12 201341h12l-12 3284v24c-12 5918-118 11989-780 18922-791 8221-2362 17658-6969 26824-4595 9166-12225 18060-20918 25690s-18462 14009-31478 17824-29305 5067-44801 4004c-15497-1063-30214-4441-41860-9083s-20221-10548-27332-17587c-7122-7040-12792-15225-16288-24982-3508-9756-4843-21084-6177-32411h50034c945 6130 1890 12272 4642 18013 2752 5752 7323 11103 13961 14953 6650 3851 15391 6213 24084 6685s17351-945 25100-4760c7748-3815 14587-10028 18840-16324 4252-6296 5894-12674 6721-17269 768-4240 827-6981 827-9603v-22702c-14280 13430-33439 21875-57582 21875-59979 0-89213-52125-89213-103222S89652 9980 149631 9980zm13323 44246c30545 0 45427 30627 45427 60653 0 30013-14883 60641-45427 60641-30533 0-45427-30627-45427-60641 0-30025 14894-60653 45427-60653z"/></g></svg>