<svg xmlns="http://www.w3.org/2000/svg" width="32" height="32" viewBox="0 0 320000 320000" xmlns:xlink="http://www.w3.org/1999/xlink" shape-rendering="geometricPrecision" text-rendering="geometricPrecision" image-rendering="optimizeQuality" fill-rule="evenodd" clip-rule="evenodd"><defs><style><![CDATA[
    .fil0 {fill:#373435;fill-opacity:0.501961}
    .fil2 {fill:url(#id0)}
    .fil1 {fill:url(#id1)}
   ]]></style><linearGradient id="id0" gradientUnits="userSpaceOnUse" x1="160012" y1="93654.2" x2="160012" y2="226322"><stop offset="0" stop-color="#FFCB3D"/><stop offset="1" stop-color="#F2B100"/></linearGradient><linearGradient id="id1" gradientUnits="userSpaceOnUse" xlink:href="#id0" x1="138078" y1="118329" x2="138078" y2="191537"/></defs><g id="Layer_x0020_1"><g id="_152555792"><path class="fil0" d="M124164 110096h-18852V92001h33640l46053 114974 18674-6379 6674 19537-37006 12638-28867-72027-42534 67480H75783l58515-92851z"/><path class="fil0" d="M275919 39876h130c21533 71 38955 17552 38955 39085 0 4583-791 8989-2244 13064l12 12-24 35c-496 1406-1075 2764-1713 4075l-49750 118045c-697 1784-1453 3543-2232 5280l-83 213c-19962 44400-64574 75323-116415 75323-70456 0-127565-57109-127565-127565S72099 39878 142555 39878h133365zm-13182 64480h21922v9473h-34809v-11292c5374-6780 10737-13572 14363-18473 3626-4890 5504-7914 6532-10371 1016-2457 1181-4370 992-6059-177-1689-709-3166-1453-4040-744-862-1724-1134-2693-1158-969-35-1949 165-2799 791-850 638-1571 1689-2020 3012s-602 2929-768 4524h-11304c189-2445 366-4902 1028-7075 661-2173 1795-4075 3449-5622 1665-1536 3851-2705 6083-3378 2244-673 4524-827 7028-638s5221 744 7595 1949 4429 3059 5681 5233c1252 2162 1724 4630 1736 7311 24 2669-402 5540-1512 8764-1122 3213-2917 6780-5221 10158-2291 3366-5091 6544-7477 9331-2386 2788-4370 5173-6355 7559zM142554 66807c55585 0 100635 45061 100635 100635s-45049 100635-100635 100635c-55574 0-100635-45061-100635-100635S86980 66807 142554 66807z"/></g><g id="_153490832"><path class="fil1" d="M119179 102643h-18851V84547h33639l46054 114975 18674-6379 6673 19537-37005 12638-28868-72027-42534 67480H70799l58514-92851z"/><path class="fil2" d="M270935 32423h130c21533 71 38955 17552 38955 39085 0 4583-791 8989-2244 13064l12 12-24 35c-496 1406-1075 2764-1713 4075l-49750 118045c-697 1784-1453 3543-2232 5280l-83 213c-19962 44400-64574 75323-116415 75323-70456 0-127565-57109-127565-127565S67115 32425 137571 32425h133365zm-13182 64480h21922v9473h-34809V95084c5374-6780 10737-13572 14363-18473 3626-4890 5504-7914 6532-10371 1016-2457 1181-4370 992-6059-177-1689-709-3166-1453-4040-744-862-1724-1134-2693-1158-969-35-1949 165-2799 791-850 638-1571 1689-2020 3012s-602 2929-768 4524h-11304c189-2445 366-4902 1028-7075 661-2173 1795-4075 3449-5622 1665-1536 3851-2705 6083-3378 2244-673 4524-827 7028-638s5221 744 7595 1949 4429 3059 5681 5233c1252 2162 1724 4630 1736 7311 24 2669-402 5540-1512 8764-1122 3213-2917 6780-5221 10158-2291 3366-5091 6544-7477 9331-2386 2788-4370 5173-6355 7559zM137570 59354c55585 0 100635 45061 100635 100635s-45049 100635-100635 100635c-55574 0-100635-45061-100635-100635S81996 59354 137570 59354z"/></g></g></svg>