<svg xmlns="http://www.w3.org/2000/svg" width="32" height="32" viewBox="0 0 320000 320000" shape-rendering="geometricPrecision" text-rendering="geometricPrecision" image-rendering="optimizeQuality" fill-rule="evenodd" clip-rule="evenodd"><defs><style><![CDATA[
    .fil0 {fill:#373435;fill-opacity:0.501961}
    .fil1 {fill:url(#id0)}
   ]]></style><linearGradient id="id0" gradientUnits="userSpaceOnUse" x1="159539" y1="18993.1" x2="159539" y2="302826"><stop offset="0" stop-color="#F43C22"/><stop offset="1" stop-color="#BD2414"/></linearGradient></defs><g id="Layer_x0020_1"><path class="fil0" d="M128546 105903c555 2079 862 4252 862 6496 0 13808-11197 25005-25005 25005s-25005-11197-25005-25005c0-12095 8587-22182 20009-24509l18048 25785 11091-7772zm112269 2634l74189 12012-921 5799-74189-12012 921-5799zm8493-19253l46727 4677-343 3508-46739-4677 354-3508zm-27214-26517l46727 4689-343 3508-46739-4677 354-3520zM26187 193214c-7217-1122-12154-7878-11044-15083 1122-7217 7878-12154 15083-11044l32494 4949 59318-38553 67480 98544 41045 5528c7241 980 12320 7642 11351 14883-980 7241-7642 12320-14883 11351l-46821-6319c-3945-532-7252-2752-9284-5847l-11256-16229-4477 19938 49857 24556c6555 3236 9248 11174 6012 17729s-11174 9248-17717 6012l-59200-29151c-5740-2835-8516-9284-6933-15249l7477-33321-32978-47589-28773 18769-4217 2752-5008-780-37525-5847zm32057 43479c-6107 2232-12875-898-15119-7004-2232-6107 898-12875 7004-15119l41093-15107 13761-9544 13394 19324-15072 10465-1276 886-1347 496-42439 15603zm115305-81583c6508-2599 13005-5197 19170-8504 6166-3307 11989-7311 17611-11552 5611-4229 11020-8705 14847-12816 3815-4110 6059-7855 8292-11599-2988-1772-5977-3532-8221-6059-2232-2528-3709-5799-4949-8764s-2221-5622-3024-7359c-815-1736-1441-2575-2055-3402 1039-1358 2079-2705 2539-4607 472-1902 366-4347-260-6496-626-2162-1760-4040-2599-5469-827-1429-1347-2421-1642-3354-283-933-331-1819-1039-2835-697-1016-2055-2162-4075-2622-2032-472-4736-260-7181 260s-4630 1347-14800 8115c-10170 6756-28312 19454-38411 26647-10087 7205-12119 8930-13442 10902-1323 1973-1949 4217-2162 6142-201 1913 0 3532 650 4725 650 1205 1748 1984 2835 3154 1098 1169 2185 2728 3780 4335 1583 1618 3662 3284 6083 4087s5173 756 7926 697c780 1252 1559 2504 3071 3803s3744 2646 6012 4524c2256 1866 4547 4264 6166 6496 1606 2244 2539 4323 3248 6225 697 1890 1169 3614 1630 5327zm-26848-79646l5044 7217 50778-35541-5055-7217-50766 35541zM84537 49868l-6780-26836h11386l-4607 26836zm-5374 4288c-366-118-177-24-555-307L38590 36061l7016-10607 33557 28702zm-28242 6792l-1335 11859 26293-3898-24958-7961zm66653 45652L96230 76114l30769-21544 21344 30486c-10252 7181-20517 14363-30769 21544zM94258 73291l-8398-11989c1583-3106 3177-6213 5327-8930 2150-2705 4855-5020 7985-6874 3130-1843 6697-3225 9733-4016 3036-803 5551-1016 8067-1240l8056 11505-30769 21544z"/><path class="fil1" d="M123573 101863c555 2079 862 4252 862 6496 0 13808-11197 25005-25005 25005s-25005-11197-25005-25005c0-12095 8587-22182 20009-24509l18048 25785 11091-7772zm112269 2634l74189 12012-921 5799-74189-12012 921-5799zm8493-19253l46727 4677-343 3508-46739-4677 354-3508zm-27214-26517l46727 4689-343 3508-46739-4677 354-3520zM21214 189174c-7217-1122-12154-7878-11044-15083 1122-7217 7878-12154 15083-11044l32494 4949 59318-38553 67480 98544 41045 5528c7241 980 12320 7642 11351 14883-980 7241-7642 12320-14883 11351l-46821-6319c-3945-532-7252-2752-9284-5847l-11256-16229-4477 19938 49857 24556c6555 3236 9248 11174 6012 17729s-11174 9248-17717 6012l-59200-29151c-5740-2835-8516-9284-6933-15249l7477-33321-32978-47589-28773 18769-4217 2752-5008-780-37525-5847zm32057 43479c-6107 2232-12875-898-15119-7004-2232-6107 898-12875 7004-15119l41093-15107 13761-9544 13394 19324-15072 10465-1276 886-1347 496-42439 15603zm115305-81583c6508-2599 13005-5197 19170-8504 6166-3307 11989-7311 17611-11552 5611-4229 11020-8705 14847-12816 3815-4110 6059-7855 8292-11599-2988-1772-5977-3532-8221-6059-2232-2528-3709-5799-4949-8764s-2221-5622-3024-7359c-815-1736-1441-2575-2055-3402 1039-1358 2079-2705 2539-4607 472-1902 366-4347-260-6496-626-2162-1760-4040-2599-5469-827-1429-1347-2421-1642-3354-283-933-331-1819-1039-2835-697-1016-2055-2162-4075-2622-2032-472-4736-260-7181 260s-4630 1347-14800 8115c-10170 6756-28312 19454-38411 26647-10087 7205-12119 8930-13442 10902-1323 1973-1949 4217-2162 6142-201 1913 0 3532 650 4725 650 1205 1748 1984 2835 3154 1098 1169 2185 2728 3780 4335 1583 1618 3662 3284 6083 4087s5173 756 7926 697c780 1252 1559 2504 3071 3803s3744 2646 6012 4524c2256 1866 4547 4264 6166 6496 1606 2244 2539 4323 3248 6225 697 1890 1169 3614 1630 5327zm-26848-79646l5044 7217 50778-35541-5055-7217-50766 35541zM79564 45828l-6780-26836h11386l-4607 26836zm-5374 4288c-366-118-177-24-555-307L33617 32021l7016-10607 33557 28702zm-28242 6792l-1335 11859 26293-3898-24958-7961zm66653 45652L91257 72074l30769-21544 21344 30486c-10252 7181-20517 14363-30769 21544zM89285 69251l-8398-11989c1583-3106 3177-6213 5327-8930 2150-2705 4855-5020 7985-6874 3130-1843 6697-3225 9733-4016 3036-803 5551-1016 8067-1240l8056 11505-30769 21544z"/></g></svg>