<svg xmlns="http://www.w3.org/2000/svg" width="32" height="32" viewBox="0 0 320000 320000" xmlns:xlink="http://www.w3.org/1999/xlink" shape-rendering="geometricPrecision" text-rendering="geometricPrecision" image-rendering="optimizeQuality" fill-rule="evenodd" clip-rule="evenodd"><defs><style><![CDATA[
    .fil0 {fill:#373435;fill-opacity:0.501961}
    .fil2 {fill:url(#id0)}
    .fil1 {fill:url(#id1)}
   ]]></style><linearGradient id="id0" gradientUnits="userSpaceOnUse" x1="159846" y1="170134" x2="159846" y2="310492"><stop offset="0" stop-color="#F43C22"/><stop offset="1" stop-color="#BD2414"/></linearGradient><linearGradient id="id1" gradientUnits="userSpaceOnUse" xlink:href="#id0" x1="141160" y1="9520.15" x2="141160" y2="245941"/></defs><g id="Layer_x0020_1"><g id="_151343792"><path class="fil0" d="M55881 52243c-6555 8729-11516 18438-13631 32541-2114 14091-1394 32588 2268 47920 3673 15343 10276 27521 17918 36876 7642 9343 16324 15851 23033 23907 6721 8056 11469 17658 15190 25926 3709 8256 6402 15178 9189 20292 2788 5114 5681 8422 8363 9815 2681 1394 5162 874 6662-1299 1500-2162 2020-5988 2634-7902 626-1902 1347-1902 3981 106 2634 2020 7170 6048 10123 7382 2941 1347 4288 0 4796-2941 520-2941 213-7489 1087-9603s2941-1807 4181-47c1240 1748 1654 4949 3981 6709 2327 1748 6555 2067 9343 1087s4134-3260 5114-5575c980-2327 1606-4701 3508-6000 1913-1287 5114-1488 7441 413 2327 1913 3768 5941 5776 7902 2020 1973 4607 1866 6614 366 2020-1500 3461-4394 5114-4654 1654-260 3508 2126 5528 3780 2008 1642 4181 2575 6355 1134 2162-1453 4335-5268 6095-9556 1748-4288 3095-9036 3709-14103 626-5055 520-10430 3508-18072 3000-7642 9095-17552 15603-27474 6508-9910 13430-19832 17505-32742s5315-28809 3508-43892c-1807-15072-6662-29328-12024-38990-5374-9650-11256-14717-20044-19359-8776-4654-20446-8882-31336-12449-10902-3567-21025-6449-34962-7843-13950-1406-31714-1299-46219 980-14516 2268-25773 6709-35482 12804S62439 43525 55884 52242zm110604 114821c-1287 2433-1595 7453-1287 11977 319 4524 1252 8563 2079 11091 815 2528 1547 3555 3709 2894 2173-673 5788-3047 7335-5681s1039-5528-307-9296c-1347-3768-3508-8422-5740-10831-2221-2410-4500-2575-5788-154zm-16465-1004c-1854 567-3721 2221-4488 5835-780 3614-461 9201-1394 13323-933 4134-3095 6827-3508 8528s921 2421 3969 2894c3047 461 7796 661 10335-213 2528-874 2835-2835 2575-8008-260-5162-1087-13524-2421-17965-1347-4441-3201-4961-5067-4394zm37183-48947c-6508 2421-11469 6555-14410 10430-2941 3874-3874 7489-1654 12390 2221 4902 7595 11103 12603 14977s9662 5422 15284 5681c5634 260 12249-780 17410-3921 5162-3154 8882-8422 10276-14044 1394-5634 461-11623-2740-16583-3201-4961-8682-8882-15438-10489-6768-1595-14824-874-21332 1559zm-94859 7642c-4701 3047-9142 7382-11008 12544-1854 5162-1134 11162 1606 16324s7489 9497 14457 11670c6969 2162 16170 2162 24119-721 7949-2894 14670-8682 17765-12969 3095-4288 2575-7075-47-11564-2634-4488-7394-10690-13123-14611-5729-3933-12449-5587-18284-5528-5835 47-10784 1807-15485 4855z"/><path class="fil0" d="M267509 183470c-2740 3201-6355 7843-10902 14198-4536 6355-10016 14410-17245 21899s-16217 14410-27474 20859c-11256 6461-24793 12449-43526 19784-7288 2847-15367 5894-23493 8847-5457-1382-10784-2728-15816-3945-19418-4701-34384-7489-44506-10737-10123-3260-15391-6981-20505-12449-5114-5469-10075-12709-14044-17398-3981-4701-6981-6874-9815-7807-2835-921-5528-614-8209 520s-5374 3095-6402 7181c-1039 4075-413 10276 1500 14611 1902 4335 5103 6815 5008 7748-106 933-3520 307-5528 1854-2020 1547-2634 5268-307 8835 2315 3567 7583 6969 13678 8882s13016 2327 24993 4701c10453 2067 24757 5634 42829 10382-15828 4536-24828 5551-31773 6910-7122 1394-12083 3154-13631 6922-1547 3768 307 9556 5422 12816 5114 3248 13477 3969 21320 3095 7855-886 15190-3354 18391-2894 3201 461 2268 3874 4028 5528 1748 1654 6201 1547 11150-154 4961-1713 10430-5008 19631-9863 4677-2480 10323-5351 16879-8634 9308 2492 18332 4878 26387 6981 20658 5362 35021 8776 45711 10737 10678 1961 17706 2480 23233 307 5528-2162 9556-7016 12650-11717 3095-4701 5268-9248 4347-12709-933-3461-4961-5835-11316-6248s-15024 1146-26080 1559c-11056 402-24474-319-43124-3981l-1051-213c13926-6910 29092-14576 41589-21580 15391-8622 26753-16265 36876-22572 10123-6296 19005-11256 26281-15851 7288-4595 12969-8835 16430-13371 3461-4547 4701-9402 3402-14717-1287-5327-5114-11103-9449-13890-4335-2788-9189-2587-12697-1500-3520 1087-5681 3047-8528 3248-2835 213-6355-1335-9036-1240-2681 106-4547 1866-7276 5067z"/></g><g id="_152642624"><path class="fil1" d="M45876 47270c-6555 8729-11516 18438-13631 32541-2114 14091-1394 32588 2268 47920 3673 15343 10276 27521 17918 36876 7642 9343 16324 15851 23033 23907 6721 8056 11469 17658 15190 25926 3709 8256 6402 15178 9189 20292 2788 5114 5681 8422 8363 9815 2681 1394 5162 874 6662-1299 1500-2162 2020-5988 2634-7902 626-1902 1347-1902 3981 106 2634 2020 7170 6048 10123 7382 2941 1347 4288 0 4796-2941 520-2941 213-7489 1087-9603s2941-1807 4181-47c1240 1748 1654 4949 3981 6709 2327 1748 6555 2067 9343 1087s4134-3260 5114-5575c980-2327 1606-4701 3508-6000 1913-1287 5114-1488 7441 413 2327 1913 3768 5941 5776 7902 2020 1973 4607 1866 6614 366 2020-1500 3461-4394 5114-4654 1654-260 3508 2126 5528 3780 2008 1642 4181 2575 6355 1134 2162-1453 4335-5268 6095-9556 1748-4288 3095-9036 3709-14103 626-5055 520-10430 3508-18072 3000-7642 9095-17552 15603-27474 6508-9910 13430-19832 17505-32742s5315-28809 3508-43892c-1807-15072-6662-29328-12024-38990-5374-9650-11256-14717-20044-19359-8776-4654-20446-8882-31336-12449-10902-3567-21025-6449-34962-7843-13950-1406-31714-1299-46219 980-14516 2268-25773 6709-35482 12804S52434 38552 45879 47269zm110604 114821c-1287 2433-1595 7453-1287 11977 319 4524 1252 8563 2079 11091 815 2528 1547 3555 3709 2894 2173-673 5788-3047 7335-5681s1039-5528-307-9296c-1347-3768-3508-8422-5740-10831-2221-2410-4500-2575-5788-154zm-16465-1004c-1854 567-3721 2221-4488 5835-780 3614-461 9201-1394 13323-933 4134-3095 6827-3508 8528s921 2421 3969 2894c3047 461 7796 661 10335-213 2528-874 2835-2835 2575-8008-260-5162-1087-13524-2421-17965-1347-4441-3201-4961-5067-4394zm37183-48947c-6508 2421-11469 6555-14410 10430-2941 3874-3874 7489-1654 12390 2221 4902 7595 11103 12603 14977s9662 5422 15284 5681c5634 260 12249-780 17410-3921 5162-3154 8882-8422 10276-14044 1394-5634 461-11623-2740-16583-3201-4961-8682-8882-15438-10489-6768-1595-14824-874-21332 1559zm-94859 7642c-4701 3047-9142 7382-11008 12544-1854 5162-1134 11162 1606 16324s7489 9497 14457 11670c6969 2162 16170 2162 24119-721 7949-2894 14670-8682 17765-12969 3095-4288 2575-7075-47-11564-2634-4488-7394-10690-13123-14611-5729-3933-12449-5587-18284-5528-5835 47-10784 1807-15485 4855z"/><path class="fil2" d="M257505 178497c-2740 3201-6355 7843-10902 14198-4536 6355-10016 14410-17245 21899s-16217 14410-27474 20859c-11256 6461-24793 12449-43526 19784-7288 2847-15367 5894-23493 8847-5457-1382-10784-2728-15816-3945-19418-4701-34384-7489-44506-10737-10123-3260-15391-6981-20505-12449-5114-5469-10075-12709-14044-17398-3981-4701-6981-6874-9815-7807-2835-921-5528-614-8209 520s-5374 3095-6402 7181c-1039 4075-413 10276 1500 14611 1902 4335 5103 6815 5008 7748-106 933-3520 307-5528 1854-2020 1547-2634 5268-307 8835 2315 3567 7583 6969 13678 8882s13016 2327 24993 4701c10453 2067 24757 5634 42829 10382-15828 4536-24828 5551-31773 6910-7122 1394-12083 3154-13631 6922-1547 3768 307 9556 5422 12816 5114 3248 13477 3969 21320 3095 7855-886 15190-3354 18391-2894 3201 461 2268 3874 4028 5528 1748 1654 6201 1547 11150-154 4961-1713 10430-5008 19631-9863 4677-2480 10323-5351 16879-8634 9308 2492 18332 4878 26387 6981 20658 5362 35021 8776 45711 10737 10678 1961 17706 2480 23233 307 5528-2162 9556-7016 12650-11717 3095-4701 5268-9248 4347-12709-933-3461-4961-5835-11316-6248s-15024 1146-26080 1559c-11056 402-24474-319-43124-3981l-1051-213c13926-6910 29092-14576 41589-21580 15391-8622 26753-16265 36876-22572 10123-6296 19005-11256 26281-15851 7288-4595 12969-8835 16430-13371 3461-4547 4701-9402 3402-14717-1287-5327-5114-11103-9449-13890-4335-2788-9189-2587-12697-1500-3520 1087-5681 3047-8528 3248-2835 213-6355-1335-9036-1240-2681 106-4547 1866-7276 5067z"/></g></g></svg>