<?xml version="1.0" encoding="UTF-8"?>
<!DOCTYPE svg PUBLIC "-//W3C//DTD SVG 1.1//EN" "http://www.w3.org/Graphics/SVG/1.1/DTD/svg11.dtd">
<!-- Creator: CorelDRAW X5 -->
<svg xmlns="http://www.w3.org/2000/svg" xml:space="preserve" width="32px" height="32px" style="shape-rendering:geometricPrecision; text-rendering:geometricPrecision; image-rendering:optimizeQuality; fill-rule:evenodd; clip-rule:evenodd"
viewBox="0 0 3200000 3200000"
 xmlns:xlink="http://www.w3.org/1999/xlink">
 <defs>
  <style type="text/css">
   <![CDATA[
    .fil0 {fill:#373435;fill-opacity:0.501961}
    .fil1 {fill:url(#id0)}
    .fil2 {fill:url(#id1)}
   ]]>
  </style>
  <linearGradient id="id0" gradientUnits="userSpaceOnUse" x1="1.58819e+006" y1="835553" x2="1.58819e+006" y2="2.38783e+006">
   <stop offset="0" style="stop-color:#F64843"/>
   <stop offset="1" style="stop-color:#BB3531"/>
  </linearGradient>
  <linearGradient id="id1" gradientUnits="userSpaceOnUse" xlink:href="#id0" x1="959220" y1="1.23538e+006" x2="959220" y2="2.09384e+006">
  </linearGradient>
 </defs>
 <g id="Layer_x0020_1">
  <metadata id="CorelCorpID_0Corel-Layer"/>
  <g id="_415025440">
   <path class="fil0" d="M2667179 188395l236 0 1536 0 0 0c265761,945 480969,216625 480969,482622 0,56578 -9804,110911 -27639,161347l0 0 -236 591c-6142,17245 -13229,34017 -21143,50317l-614322 1457552c-8622,21970 -17836,43821 -27521,65318l-1063 2480 0 0c-135952,302495 -364742,554319 -649875,719327l0 -236c-79492,45947 -181190,18662 -227137,-60830 -45947,-79492 -18662,-181190 60830,-227137 1654,-945 3425,-1890 5079,-2835 368640,-215562 616330,-615503 616330,-1073321 0,-686254 -556445,-1242699 -1242699,-1242699 -224066,0 -434195,59412 -615739,163118 -1772,1181 -3662,2362 -5551,3425 -79492,45947 -181190,18662 -227137,-60830 -45947,-79610 -18662,-181308 60830,-227137l-236 -118c231744,-134180 500812,-210955 787834,-210955l1646538 0 118 0zm182726 861538l-573808 0c6614,-56696 26576,-109966 60003,-159929 33309,-49845 95792,-108785 187450,-176820 56105,-41459 91894,-73232 107604,-94729 15709,-21615 23505,-42167 23505,-61538 0,-21025 -7796,-38978 -23269,-53861 -15473,-14765 -35080,-22206 -58467,-22206 -24450,0 -44412,7678 -59885,23033 -15473,15237 -25867,42286 -31301,81264l-191466 -15591c7441,-53861 21261,-95792 41341,-126148 19962,-30120 48191,-53270 84807,-69334 36380,-16182 86815,-24214 151425,-24214 67090,0 119533,7678 157094,22915 37325,15355 66736,38978 88115,70633 21497,31891 32246,67562 32246,106895 0,42049 -12402,82091 -36852,120242 -24568,38151 -69334,80201 -134062,125794 -38624,26694 -64255,45238 -77248,55987 -12993,10512 -28348,24568 -45829,41695l298597 0 0 155913z"/>
   <polygon class="fil0" points="783582,1187421 600502,1187421 561524,1187421 561524,1148442 561524,947527 561524,908549 600502,908549 973985,908549 1000325,908549 1010128,932999 1507751,2175461 1680201,2116521 1716935,2104001 1729573,2140972 1803632,2357714 1816152,2394449 1779300,2407087 1368493,2547409 1333648,2559339 1319947,2525085 1027610,1796073 595895,2480791 584438,2499099 563059,2499099 272612,2499099 202097,2499099 239776,2439451 878902,1425188 "/>
  </g>
  <g id="_415025176">
   <path class="fil1" d="M2617334 119061l236 0 1536 0 0 0c265761,945 480969,216625 480969,482622 0,56578 -9804,110911 -27639,161347l0 0 -236 591c-6142,17245 -13229,34017 -21143,50317l-614322 1457552c-8622,21970 -17836,43821 -27521,65318l-1063 2480 0 0c-135952,302495 -364742,554319 -649875,719327l0 -236c-79492,45947 -181190,18662 -227137,-60830 -45947,-79492 -18662,-181190 60830,-227137 1654,-945 3425,-1890 5079,-2835 368640,-215562 616330,-615503 616330,-1073321 0,-686254 -556445,-1242699 -1242699,-1242699 -224066,0 -434195,59412 -615739,163118 -1772,1181 -3662,2362 -5551,3425 -79492,45947 -181190,18662 -227137,-60830 -45947,-79610 -18662,-181308 60830,-227137l-236 -118c231744,-134180 500812,-210955 787834,-210955l1646538 0 118 0zm182607 880909l-573808 0c6614,-56696 26576,-109966 60003,-159929 33309,-49845 95792,-108785 187450,-176820 56105,-41459 91894,-73232 107604,-94729 15709,-21615 23505,-42167 23505,-61538 0,-21025 -7796,-38860 -23151,-53861 -15591,-14765 -35080,-22206 -58586,-22206 -24450,0 -44294,7678 -59885,23033 -15355,15237 -25867,42404 -31301,81264l-191584 -15591c7678,-53861 21379,-95792 41459,-126148 20080,-30120 48191,-53388 84689,-69334 36380,-16182 86933,-24214 151543,-24214 67090,0 119533,7678 157094,22915 37325,15355 66736,38978 88115,70633 21497,32009 32246,67562 32246,107013 0,41931 -12402,81973 -36852,120124 -24568,38151 -69216,80201 -134062,125912 -38624,26576 -64255,45120 -77248,55869 -12993,10630 -28348,24568 -45829,41695l298597 0 0 155913z"/>
   <polygon class="fil2" points="733737,1118087 550657,1118087 511679,1118087 511679,1079108 511679,878193 511679,839215 550657,839215 924140,839215 950480,839215 960283,863665 1457906,2106127 1630356,2047187 1667090,2034667 1679728,2071637 1753787,2288380 1766307,2325114 1729455,2337753 1318648,2478075 1283803,2490004 1270102,2455751 977765,1726739 546050,2411457 534593,2429765 513214,2429765 222767,2429765 152252,2429765 189931,2370117 829057,1355854 "/>
  </g>
 </g>
</svg>
