<svg xmlns="http://www.w3.org/2000/svg" width="32" height="32" viewBox="0 0 320000 320000" xmlns:xlink="http://www.w3.org/1999/xlink" shape-rendering="geometricPrecision" text-rendering="geometricPrecision" image-rendering="optimizeQuality" fill-rule="evenodd" clip-rule="evenodd"><defs><style><![CDATA[
    .fil0 {fill:#373435;fill-opacity:0.501961}
    .fil1 {fill:url(#id0)}
    .fil2 {fill:url(#id1)}
   ]]></style><linearGradient id="id0" gradientUnits="userSpaceOnUse" x1="158831" y1="83555.3" x2="158831" y2="238783"><stop offset="0" stop-color="#FFCB3D"/><stop offset="1" stop-color="#F2B100"/></linearGradient><linearGradient id="id1" gradientUnits="userSpaceOnUse" xlink:href="#id0" x1="95945.7" y1="123538" x2="95945.7" y2="209384"/></defs><g id="Layer_x0020_1"><g id="_722780048"><path class="fil0" d="M266730 18840h178c26576 94 48097 21662 48097 48262 0 5658-980 11091-2764 16135l-24 59c-614 1724-1323 3402-2114 5032l-61432 145755c-862 2197-1784 4382-2752 6532l-106 248c-13595 30250-36474 55432-64987 71933v-24c-7949 4595-18119 1866-22714-6083s-1866-18119 6083-22714c165-94 343-189 508-283 36864-21556 61633-61550 61633-107332 0-68625-55644-124270-124270-124270-22407 0-43419 5941-61574 16312-177 118-366 236-555 343-7949 4595-18119 1866-22714-6083-4595-7961-1866-18131 6083-22714l-24-12c23174-13418 50081-21096 78783-21096h164666z"/><path class="fil0" d="M78370 118742H56164V90855h43880l981 2445 49762 124246 17245-5894 3673-1252 1264 3697 7406 21674 1252 3674-3685 1264-41081 14032-3484 1193-1371-3426-29233-72901-43172 68472-1145 1831H20221l3768-5965 63913-101426z"/></g><g id="_723304256"><path class="fil1" d="M261745 11906h178c26576 94 48097 21662 48097 48262 0 5658-980 11091-2764 16135l-24 59c-614 1724-1323 3402-2114 5032l-61432 145755c-862 2197-1784 4382-2752 6532l-106 248c-13595 30250-36474 55432-64987 71933v-24c-7949 4595-18119 1866-22714-6083s-1866-18119 6083-22714c165-94 343-189 508-283 36864-21556 61633-61550 61633-107332 0-68625-55644-124270-124270-124270-22407 0-43419 5941-61574 16312-177 118-366 236-555 343-7949 4595-18119 1866-22714-6083-4595-7961-1866-18131 6083-22714l-24-12c23174-13418 50081-21096 78783-21096h164666z"/><path class="fil2" d="M73386 111809H51180V83921h43880l980 2445 49762 124247 17245-5894 3674-1252 1264 3697 7406 21674 1252 3673-3686 1264-41080 14032-3485 1193-1370-3425-29234-72901-43171 68472-1146 1831H15237l3768-5965 63912-101427z"/></g></g></svg>