<svg xmlns="http://www.w3.org/2000/svg" width="32" height="32" viewBox="0 0 320000 320000" shape-rendering="geometricPrecision" text-rendering="geometricPrecision" image-rendering="optimizeQuality" fill-rule="evenodd" clip-rule="evenodd"><defs><style><![CDATA[
    .fil0 {fill:#373435;fill-opacity:0.501961}
    .fil1 {fill:url(#id0)}
   ]]></style><linearGradient id="id0" gradientUnits="userSpaceOnUse" x1="160012" y1="210991" x2="160012" y2="108986"><stop offset="0" stop-color="#4B4B4D"/><stop offset=".329" stop-color="#67686A"/><stop offset="1" stop-color="#848688"/></linearGradient></defs><g id="Layer_x0020_1"><path class="fil0" d="M164996 14989c82847 0 150007 67161 150007 150007 0 82847-67161 150007-150007 150007-82847 0-150007-67161-150007-150007 0-82847 67161-150007 150007-150007zm-6768 267864c-3473 0-6709-697-9721-2102-3012-1394-5611-3284-7807-5658-2197-2374-3992-5185-5386-8422-1382-3236-2079-6697-2079-10359 0-7772 2492-14198 7465-19277 4973-5067 10819-7607 17528-7607 7170 0 12957 2539 17351 7607 4406 5079 6603 11505 6603 19277 0 7335-2197 13595-6603 18780-4394 5173-10182 7760-17351 7760zM96087 75949c8563-10571 18686-18025 30379-22336 11682-4323 25277-6485 40785-6485 20363 0 36569 5185 48593 15544 12036 10359 18060 25690 18060 45983 0 7559-1051 14245-3130 20080-2079 5823-4855 11221-8327 16182-3473 4973-7465 9615-11977 13926-4512 4323-9201 8528-14056 12627-3933 3461-7004 6803-9201 10040-2197 3236-3815 6697-4866 10359-1039 3673-1677 7666-1902 11989-236 4311-354 9060-354 14245h-44423v-6803c0-14457 2362-27474 7111-39014 4748-11552 11977-21107 21698-28655 4630-3673 8445-6863 11457-9556 3000-2705 5374-5292 7111-7772 1736-2480 2894-5067 3473-7772 579-2693 874-5988 874-9875 0-12520-7063-18780-21178-18780-8800 0-17127 1453-24993 4370-7867 2917-15154 8363-21875 16347L96089 75950z"/><path class="fil1" d="M160012 9981c82847 0 150007 67161 150007 150007 0 82847-67161 150007-150007 150007-82847 0-150007-67161-150007-150007 0-82847 67161-150007 150007-150007zm-6768 267864c-3473 0-6709-697-9721-2102-3012-1394-5611-3284-7807-5658-2197-2374-3992-5185-5386-8422-1382-3236-2079-6697-2079-10359 0-7772 2492-14198 7465-19277 4973-5067 10819-7607 17528-7607 7170 0 12957 2539 17351 7607 4406 5079 6603 11505 6603 19277 0 7335-2197 13595-6603 18780-4394 5173-10182 7760-17351 7760zM91103 70941c8563-10571 18686-18025 30379-22336 11682-4323 25277-6485 40785-6485 20363 0 36569 5185 48593 15544 12036 10359 18060 25690 18060 45983 0 7559-1051 14245-3130 20080-2079 5823-4855 11221-8327 16182-3473 4973-7465 9615-11977 13926-4512 4323-9201 8528-14056 12627-3933 3461-7004 6803-9201 10040-2197 3236-3815 6697-4866 10359-1039 3673-1677 7666-1902 11989-236 4311-354 9060-354 14245h-44423v-6803c0-14457 2362-27474 7111-39014 4748-11552 11977-21107 21698-28655 4630-3673 8445-6863 11457-9556 3000-2705 5374-5292 7111-7772 1736-2480 2894-5067 3473-7772 579-2693 874-5988 874-9875 0-12520-7063-18780-21178-18780-8800 0-17127 1453-24993 4370-7867 2917-15154 8363-21875 16347L91105 70942z"/></g></svg>