<svg xmlns="http://www.w3.org/2000/svg" width="32" height="32" viewBox="0 0 320000 320000" shape-rendering="geometricPrecision" text-rendering="geometricPrecision" image-rendering="optimizeQuality" fill-rule="evenodd" clip-rule="evenodd"><defs><style><![CDATA[
    .fil1 {fill:#373435}
    .fil2 {fill:#2AA0F7}
    .fil0 {fill:#373435;fill-opacity:0.501961}
   ]]></style></defs><g id="Layer_x0020_1"><path class="fil0" d="M186163 248493c72795 2268 128841 16217 128841 33096 0 18450-66984 33415-149629 33415-82646 0-149629-14965-149629-33415 0-21166 71791-38317 160366-38317 37277 0 71484 3638 98816 8138 4878 803 4630 2516-366 1843-23103-3083-49727-4843-78063-4843-3473 0-6922 35-10335 83zm87902 40278c-15804 3721-39675 6343-60015 7666-3874 248-6095-1240-520-2197 6414-1110 79268-9485 57062-23292-2587-1606-6166-3130-10619-4547-7465-2244-16666-4229-27214-5859-18969-2835-43018-4607-69523-4878-532 0-1063-12-1595-12-65909 0-119333 11103-119333 24793 0 1559 697 3083 2020 4559 59-8445 20399-16028 51499-20363 3508-496 5575 1181 496 2197-23056 4607-37466 10867-37336 17517 260 12497 51900 21592 115364 20304 21627-437 41825-2020 59058-4418 18462-2882 32754-6863 40656-11469z"/><path class="fil1" d="M112919 9981c16276 0 29470 13194 29470 29470s-13194 29470-29470 29470-29470-13194-29470-29470S96643 9981 112919 9981zm136318 92532c1736-5481 7583-8516 13052-6792 5481 1736 8528 7571 6792 13052l-13028 41128c-1736 5481-7571 8516-13052 6792-1807-567-3343-1583-4524-2870l-33403-31820-18462 56826 40419 38459c4158 3945 4311 10524 366 14670-3957 4158-10524 4323-14682 366l-45168-42959c-2988-2847-3910-7052-2717-10737l13335-41069-44116-41293-5835 28360c-331 1984-1252 3910-2764 5481l-30769 31809c-3969 4134-10536 4264-14670 295-4134-3981-4264-10548-283-14682l28690-29683 6000-29151c402-1973 1347-3709 2646-5067v-12l29860-31336v-12h12l33096-34750c3957-4146 10524-4311 14682-366 118 118 236 224 343 343l35517 32553c4217 3862 4512 10418 650 14635-3862 4229-10418 4512-14646 650l-28513-26139-18934 19879 38010 36214c213 189 413 378 614 579l33486 31903 7996-25253z"/><path class="fil2" d="M180800 243484c72795 2268 128841 16217 128841 33096 0 18450-66984 33415-149629 33415-82646 0-149629-14965-149629-33415 0-21166 71791-38317 160366-38317 37277 0 71484 3638 98816 8138 4878 803 4630 2516-366 1843-23103-3083-49727-4843-78063-4843-3473 0-6922 35-10335 83zm87902 40278c-15804 3721-39675 6343-60015 7666-3874 248-6095-1240-520-2197 6414-1110 79268-9485 57062-23292-2587-1606-6166-3130-10619-4547-7465-2244-16666-4229-27214-5859-18969-2835-43018-4607-69523-4878-532 0-1063-12-1595-12-65909 0-119333 11103-119333 24793 0 1559 697 3083 2020 4559 59-8445 20399-16028 51499-20363 3508-496 5575 1181 496 2197-23056 4607-37466 10867-37336 17517 260 12497 51900 21592 115364 20304 21627-437 41825-2020 59058-4418 18462-2882 32754-6863 40656-11469z"/></g></svg>