<svg xmlns="http://www.w3.org/2000/svg" width="32" height="32" viewBox="0 0 320000 320000" shape-rendering="geometricPrecision" text-rendering="geometricPrecision" image-rendering="optimizeQuality" fill-rule="evenodd" clip-rule="evenodd"><defs><style><![CDATA[
    .fil2 {fill:#373435}
    .fil0 {fill:#373435;fill-opacity:0.501961}
    .fil1 {fill:url(#id0)}
   ]]></style><linearGradient id="id0" gradientUnits="userSpaceOnUse" x1="228129" y1="111986" x2="228129" y2="207991"><stop offset="0" stop-color="#5CC6D0"/><stop offset="1" stop-color="#2AA0F7"/></linearGradient></defs><g id="Layer_x0020_1"><path class="fil0" d="M176359 14989h8587v69783l53448 40833v12c2315 1760 4051 4323 4748 7394l7323 32128 29411 22218c5681 4288 6803 12367 2516 18036-4288 5681-12367 6815-18036 2528l-33143-25029c-2717-2055-4394-4984-4925-8103l-5835-25572-35506 42392v59l34856 50483c3721 5067 3260 12237-1358 16772l-33498 32872v23210h-8587V14990zm58715 33840c16583 0 30037 13453 30037 30049 0 16583-13453 30037-30037 30037-16595 0-30049-13453-30049-30037 0-16595 13453-30049 30049-30049zm-50128 188112v18804l7737-7595-7737-11209z"/><path class="fil1" d="M172969 9981h8587v69783l53448 40833v12c2315 1760 4051 4323 4748 7394l7323 32128 29411 22218c5681 4288 6803 12367 2516 18036-4288 5681-12367 6815-18036 2528l-33143-25029c-2717-2055-4394-4984-4925-8103l-5835-25572-35506 42392v59l34856 50483c3721 5067 3260 12237-1358 16772l-33498 32872v23210h-8587V9982zm58715 33840c16583 0 30037 13453 30037 30049 0 16583-13453 30037-30037 30037-16595 0-30049-13453-30049-30037 0-16595 13453-30049 30049-30049zm-50128 188112v18804l7737-7595-7737-11209z"/><path class="fil2" d="M98450 200266h54617v36486H38955v-25950c20552-19631 41093-39274 52349-50069 11245-10796 13194-12745 14824-14883 1618-2150 2917-4488 3437-7347 520-2870 260-6248-909-9048-1169-2788-3248-5008-5729-6319-2492-1323-5386-1760-8374-1784-2988-35-6083 331-8670 1713s-4666 3792-5965 6166-1819 4713-2079 6662-260 3520-260 5079H38376c0-3780 0-7548 614-11611s1854-8422 3862-12839c2020-4418 4819-8906 8292-12780 3484-3862 7642-7122 12225-9756s9591-4642 15119-5811 11575-1500 17528-1429c5941 59 11800 520 17458 2008 5658 1500 11115 4040 15792 7193 4689 3154 8587 6922 11776 11505s5658 9981 7087 15603 1819 11481 1205 16938c-626 5469-2244 10536-4654 15060-2410 4512-5587 8481-7937 11079-2339 2599-3827 3839-10075 9296-6237 5469-17233 15154-28218 24840z"/></g></svg>