<svg xmlns="http://www.w3.org/2000/svg" width="32" height="32" viewBox="0 0 320000 320000" shape-rendering="geometricPrecision" text-rendering="geometricPrecision" image-rendering="optimizeQuality" fill-rule="evenodd" clip-rule="evenodd"><defs><style><![CDATA[
    .fil1 {fill:#1292EF}
    .fil2 {fill:red}
    .fil0 {fill:#373435;fill-opacity:0.501961}
   ]]></style></defs><g id="Layer_x0020_1"><g id="_148470408"><path class="fil0" d="M35080 89437l15627 9048 48310-48427 8528 14823 54687-14693V14989L89993 34395zM167760 50188V14989l69476 18662-17552 30486zM167760 83437l35341 9485 9024-15662-44365-11918zM224468 66901l17552-30474 50861 50979-30404 17599zM224468 262348l17552 30485 52892-53022 20092-75181-19360-72429-15626 9048 16938 63381-17671 66145-14788-8563z"/><path class="fil0" d="M207884 233551l9024 15662 34502-34573 13359-50010-13359-50022-15627 9048-29919-29990-8776 15237 23482 23552 8599 32175-8599 32163 15213 8800zM219684 265111l17552 30486-72240 19407v-18084l-65979-17729-48310-48416-15627 9036-20091-75181h35116l15390 57582 42050 42155 57451 15438z"/><path class="fil0" d="M212125 251989l-17800-30899-29329 7866v17599l-40868-10973 8776-15237-23481-23552-8599-32163 8599-32175 23481-23552-17800-30899-36521 36604 15626 9048-10949 40974 10949 40963-15626 9047 36521 36605 49892 13406z"/></g><path class="fil1" d="M30096 84429l15627 9048 48309-48428 8528 14824 54688-14694V9981L85008 29387z"/><path class="fil2" d="M162776 45179V9981l69476 18662-17552 30486zM162776 78429l35340 9485 9024-15662-44364-11918z"/><path class="fil1" d="M219483 61893l17552-30474 50861 50979-30403 17599z"/><path class="fil2" d="M219483 257339l17552 30486 52893-53022 20091-75181-19359-72429-15627 9048 16938 63381-17670 66145-14788-8563z"/><path class="fil1" d="M202900 228543l9024 15662 34502-34573 13358-50010-13358-50022-15627 9048-29919-29990-8776 15237 23481 23552 8599 32175-8599 32163 15214 8800zM214700 260103l17552 30486-72240 19407v-18084l-65980-17729-48309-48416-15627 9036-20092-75181h35116l15391 57582 42049 42155 57452 15438z"/><path class="fil2" d="M207140 246981l-17800-30899-29328 7866v17599l-40868-10973 8776-15237-23482-23552-8599-32163 8599-32175 23482-23552-17800-30899-36522 36604 15627 9048-10949 40974 10949 40963-15627 9047 36522 36605 49892 13406z"/></g></svg>