<svg xmlns="http://www.w3.org/2000/svg" width="32" height="32" viewBox="0 0 320000 320000" xmlns:xlink="http://www.w3.org/1999/xlink" shape-rendering="geometricPrecision" text-rendering="geometricPrecision" image-rendering="optimizeQuality" fill-rule="evenodd" clip-rule="evenodd"><defs><style><![CDATA[
    .fil0 {fill:#373435;fill-opacity:0.501961}
    .fil1 {fill:url(#id0)}
    .fil2 {fill:url(#id1)}
   ]]></style><linearGradient id="id0" gradientUnits="userSpaceOnUse" x1="160012" y1="42982.4" x2="160012" y2="276994"><stop offset="0" stop-color="#C6C4E2"/><stop offset="1" stop-color="#7487C2"/></linearGradient><linearGradient id="id1" gradientUnits="userSpaceOnUse" xlink:href="#id0" x1="160614" y1="90937.5" x2="160614" y2="217145"/></defs><g id="Layer_x0020_1"><g id="_147425304"><path class="fil0" d="M164996 14989c82847 0 150007 67161 150007 150007 0 82847-67161 150007-150007 150007-82847 0-150007-67161-150007-150007 0-82847 67161-150007 150007-150007zm0 31667c65354 0 118340 52987 118340 118340 0 65354-52987 118340-118340 118340-65354 0-118340-52987-118340-118340 0-65354 52987-118340 118340-118340z"/><path class="fil0" d="M143865 98946h-21662V78146h38671l52928 132160 21462-7324 7677 22442-42533 14529-33191-82788-48888 77567H88256l67267-106730z"/></g><g id="_147425064"><path class="fil1" d="M160012 9981c82847 0 150007 67161 150007 150007 0 82847-67161 150007-150007 150007-82847 0-150007-67161-150007-150007 0-82847 67161-150007 150007-150007zm0 31667c65354 0 118340 52987 118340 118340 0 65354-52987 118340-118340 118340-65354 0-118340-52987-118340-118340 0-65354 52987-118340 118340-118340z"/><path class="fil2" d="M138881 93938h-21663V73137h38672l52927 132161 21462-7324 7678 22442-42534 14529-33191-82788-48888 77567H83272l67267-106730z"/></g></g></svg>