<svg xmlns="http://www.w3.org/2000/svg" width="32" height="32" viewBox="0 0 320000 320000" shape-rendering="geometricPrecision" text-rendering="geometricPrecision" image-rendering="optimizeQuality" fill-rule="evenodd" clip-rule="evenodd"><defs><style><![CDATA[
    .fil0 {fill:#373435;fill-opacity:0.501961}
    .fil1 {fill:url(#id0)}
    .fil2 {fill:url(#id1)}
   ]]></style><linearGradient id="id0" gradientUnits="userSpaceOnUse" x1="161677" y1="278990" x2="158323" y2="8161.82"><stop offset="0" stop-color="#E6E7E8"/><stop offset=".69" stop-color="#C8C9CB"/><stop offset="1" stop-color="#A9ABAE"/></linearGradient><linearGradient id="id1" gradientUnits="userSpaceOnUse" x1="166555" y1="287967" x2="166555" y2="162539"><stop offset="0" stop-color="#F7A105"/><stop offset=".4" stop-color="#F1C609"/><stop offset="1" stop-color="#EAEB0E"/></linearGradient></defs><g id="Layer_x0020_1"><g id="_148470384"><path class="fil0" d="M154401 125309L71318 282155c-34336-27497-56330-69759-56330-117159 0-57889 32801-108123 80827-133129l58586 93442zm10595-110320c82847 0 150007 67161 150007 150007 0 41730-17044 79468-44542 106659L114902 23564c15674-5540 32529-8575 50093-8575zM254682 285250c-25017 18686-56058 29753-89686 29753-27982 0-54168-7666-76586-21013l78653-148484 87618 139743z"/></g><path class="fil1" d="M149405 120313L66322 277159C31986 249662 9992 207400 9992 160000c0-57889 32801-108123 80827-133129l58586 93442zM160000 9993c82847 0 150007 67161 150007 150007 0 41730-17044 79468-44542 106659L109906 18568c15674-5540 32529-8575 50093-8575z"/><path class="fil2" d="M249686 280254c-25017 18686-56058 29753-89686 29753-27982 0-54168-7666-76586-21013l78653-148484 87618 139743z"/></g></svg>