<svg xmlns="http://www.w3.org/2000/svg" width="32" height="32" viewBox="0 0 320000 320000" shape-rendering="geometricPrecision" text-rendering="geometricPrecision" image-rendering="optimizeQuality" fill-rule="evenodd" clip-rule="evenodd"><defs><style><![CDATA[
    .fil0 {fill:#373435;fill-opacity:0.501961}
    .fil1 {fill:url(#id0)}
   ]]></style><linearGradient id="id0" gradientUnits="userSpaceOnUse" x1="161913" y1="313657" x2="158110" y2="6319.21"><stop offset="0" stop-color="#CC5A2D"/><stop offset=".412" stop-color="#DA8731"/><stop offset="1" stop-color="#E8B536"/></linearGradient></defs><g id="Layer_x0020_1"><path class="fil0" d="M211877 22513c63062 20658 105206 80839 103044 147161l-100151-17658c-3118-11906-10430-22348-20552-29352l17658-100151zm95603 189364c-20658 63062-80839 105194-147161 103044l17658-100151c11906-3118 22348-10430 29352-20552l100151 17658zm-189364 95603C55054 286822 12910 226641 15072 160319l100151 17658c3118 11906 10430 22348 20552 29352l-17658 100151zM22513 118116C43171 55054 103352 12922 169674 15072l-17658 100151c-11906 3118-22348 10430-29352 20552L22513 118117z"/><path class="fil1" d="M206892 17505c63062 20658 105206 80839 103044 147161l-100151-17658c-3118-11906-10430-22348-20552-29352l17658-100151zm95603 189364c-20658 63062-80839 105194-147161 103044l17658-100151c11906-3118 22348-10430 29352-20552l100151 17658zm-189364 95603C50069 281814 7925 221633 10087 155311l100151 17658c3118 11906 10430 22348 20552 29352l-17658 100151zM17528 113108C38186 50046 98367 7914 164689 10064l-17658 100151c-11906 3118-22348 10430-29352 20552L17528 113109z"/></g></svg>