<svg xmlns="http://www.w3.org/2000/svg" width="32" height="32" viewBox="0 0 320000 320000" shape-rendering="geometricPrecision" text-rendering="geometricPrecision" image-rendering="optimizeQuality" fill-rule="evenodd" clip-rule="evenodd"><defs><style><![CDATA[
    .fil0 {fill:#373435;fill-opacity:0.501961}
    .fil1 {fill:url(#id0)}
   ]]></style><linearGradient id="id0" gradientUnits="userSpaceOnUse" x1="161878" y1="311838" x2="158122" y2="8150.01"><stop offset="0" stop-color="#E8B536"/><stop offset=".412" stop-color="#F2C36B"/><stop offset="1" stop-color="#FDD1A1"/></linearGradient></defs><g id="Layer_x0020_1"><path class="fil0" d="M194998 14989c55314 12934 107072 64704 120006 120006H194998V14989zm120006 180009c-12934 55302-64692 107072-120006 120006V194998h120006zM134995 315004C79681 302070 27923 250300 14989 194998h120006v120006zM14989 134995C27923 79681 79681 27923 134995 14989v120006H14989z"/><path class="fil1" d="M190001 9993c55314 12934 107072 64704 120006 120006H190001V9993zm120006 180009c-12934 55302-64692 107072-120006 120006V190002h120006zM129998 310008C74684 297074 22926 245304 9992 190002h120006v120006zM9992 129999C22926 74685 74684 22927 129998 9993v120006H9992z"/></g></svg>