<svg xmlns="http://www.w3.org/2000/svg" width="24" height="24" viewBox="0 0 240000 240000" shape-rendering="geometricPrecision" text-rendering="geometricPrecision" image-rendering="optimizeQuality" fill-rule="evenodd" clip-rule="evenodd"><defs><style><![CDATA[
    .fil0 {fill:url(#id0)}
   ]]></style><linearGradient id="id0" gradientUnits="userSpaceOnUse" x1="20244.1" y1="48354.3" x2="219756" y2="193465"><stop offset="0" stop-color="#5BC4CF"/><stop offset="1" stop-color="#4195C0"/></linearGradient></defs><path class="fil0" d="M49996 10004h140008c21992 0 39992 18000 39992 39992v91819c0 21992-18000 39992-39992 39992v50008l-40004-50008H49996c-21992 0-39992-18000-39992-39992V49996c0-21992 18000-39992 39992-39992zm116528 32350c-3071-1264-5906-1406-9366-1370H98693c-12071-614-23965 2339-34240 8268l12 12c-1843 1004-3094 2953-3094 5185 0 3272 2646 5917 5917 5917 1701 0 3224-720 4311-1878 12850-6886 28571-8209 43075-2256 25783 10583 38138 40169 27555 65941-2835 6909-7051 12850-12189 17646l47 59c-1748 1028-2941 2929-2941 5114 0 3260 2657 5906 5917 5906 2102 0 3945-1098 4996-2752 6248-5882 11386-13146 14846-21591 236-579 24201-58606 24260-58760 4087-9957-685-21354-10642-25441zM79288 65882h18012c6331 18472 14031 35563 20362 54035 3390-791 6449-1913 9402-3130 1878 2823 2150 7240 3909 10181-6236 3024-13724 4795-21142 6650-3650-11220-8268-21484-12130-32492-6980 9472-12803 20091-19583 29752H64807c-130-1854 1346-3827 2350-5480 7689-12756 16547-27142 24272-40323-673-3236-2268-5563-3130-8610h-9012V65882zM49997 30000h140008c10996 0 19996 9000 19996 19996v91819c0 10996-9000 19996-19996 19996H49997c-10996 0-19996-9000-19996-19996V49996c0-10996 9000-19996 19996-19996z" id="Layer_x0020_1"/></svg>