<svg xmlns="http://www.w3.org/2000/svg" width="24" height="24" viewBox="0 0 24000 24000" shape-rendering="geometricPrecision" text-rendering="geometricPrecision" image-rendering="optimizeQuality" fill-rule="evenodd" clip-rule="evenodd"><defs><style><![CDATA[
    .fil0 {fill:url(#id0)}
   ]]></style><linearGradient id="id0" gradientUnits="userSpaceOnUse" x1="2024.41" y1="4835.43" x2="21975.6" y2="19346.5"><stop offset="0" stop-color="#5BC4CF"/><stop offset="1" stop-color="#4195C0"/></linearGradient></defs><path class="fil0" d="M5000 1000h14001c2199 0 3999 1800 3999 3999v9182c0 2199-1800 3999-3999 3999v5001l-4000-5001H5001c-2199 0-3999-1800-3999-3999V4999c0-2199 1800-3999 3999-3999zm3980 3180h2924c1028 2999 2278 5776 3306 8774 550-129 1046-311 1526-509 305 459 351 1176 637 1654-1015 491-2230 780-3433 1081-594-1822-1343-3489-1971-5277-1131 1539-2079 3263-3180 4832H6628c-20-301 220-621 381-889 1248-2073 2688-4408 3941-6549-109-526-367-904-508-1398H8980V4182zM5000 3000h14001c1100 0 2000 900 2000 2000v9182c0 1100-900 2000-2000 2000H5000c-1100 0-2000-900-2000-2000V5000c0-1100 900-2000 2000-2000z" id="Layer_x0020_1"/></svg>