<svg xmlns="http://www.w3.org/2000/svg" width="24" height="24" viewBox="0 0 24000 24000" shape-rendering="geometricPrecision" text-rendering="geometricPrecision" image-rendering="optimizeQuality" fill-rule="evenodd" clip-rule="evenodd"><defs><style><![CDATA[
    .fil0 {fill:url(#id0)}
   ]]></style><linearGradient id="id0" gradientUnits="userSpaceOnUse" x1="2024.41" y1="4835.43" x2="21975.6" y2="19346.5"><stop offset="0" stop-color="#5BC4CF"/><stop offset="1" stop-color="#4195C0"/></linearGradient></defs><path class="fil0" d="M5000 1000h14001c2199 0 3999 1800 3999 3999v9182c0 2199-1800 3999-3999 3999v5001l-4000-5001H5001c-2199 0-3999-1800-3999-3999V4999c0-2199 1800-3999 3999-3999zm10978 4356l1734-1000c237-137 544-56 681 183l1 1c137 237 54 544-183 681l-1734 1002c-237 137-544 54-681-183l-1-1c-137-239-56-546 183-683zM5789 10537l1734-1000c237-137 544-56 681 183l1 1c137 237 56 544-183 681l-1733 1002c-239 137-544 54-683-183v-1c-138-239-56-546 182-683zm10689-1000l1733 1000c239 137 320 444 183 681l-1 2c-137 237-444 320-681 182l-1734-1000c-237-137-320-444-183-681l1-2c137-237 444-320 683-182zM6289 4356l1734 1000c237 137 320 444 182 681v2c-138 237-444 320-683 182L5789 5221c-239-137-320-444-183-681l1-2c137-237 444-320 681-182zm10499 3024h2002c275 0 500 224 500 500v1c0 275-224 500-500 500h-2002c-274 0-498-224-498-500v-1c0-275 224-500 498-500zm-11577 0h2002c275 0 500 224 500 500v1c0 275-224 500-500 500H5211c-274 0-498-224-498-500v-1c0-275 224-500 498-500zm6790-2608c1715 0 3107 1391 3107 3107 0 1017-489 1919-1244 2486l4 3167c0 681-560 1241-1243 1241h-1244c-683 0-1241-557-1241-1241l-4-3167c-755-567-1244-1469-1244-2486 0-1716 1393-3107 3107-3107zm0 1243c1028 0 1864 835 1864 1863 0 809-520 1501-1241 1757v1577h-1245V9635c-722-256-1241-948-1241-1757 0-1028 836-1863 1864-1863zM5001 3001h14001c1100 0 2000 900 2000 2000v9182c0 1100-900 2000-2000 2000H5001c-1100 0-2000-900-2000-2000V5001c0-1100 900-2000 2000-2000z" id="Layer_x0020_1"/></svg>