<svg xmlns="http://www.w3.org/2000/svg" width="24" height="24" viewBox="0 0 240000 240000" shape-rendering="geometricPrecision" text-rendering="geometricPrecision" image-rendering="optimizeQuality" fill-rule="evenodd" clip-rule="evenodd"><defs><style><![CDATA[
    .fil0 {fill:url(#id0)}
   ]]></style><linearGradient id="id0" gradientUnits="userSpaceOnUse" x1="20244.1" y1="48354.3" x2="219756" y2="193465"><stop offset="0" stop-color="#5BC4CF"/><stop offset="1" stop-color="#4195C0"/></linearGradient></defs><path class="fil0" d="M49996 10004h140008c21992 0 39992 18000 39992 39992v91819c0 21992-18000 39992-39992 39992v50008l-40004-50008H49996c-21992 0-39992-18000-39992-39992V49996c0-21992 18000-39992 39992-39992zm70004 31795c30366 0 55004 24638 55004 55004s-24638 55004-55004 55004-55004-24638-55004-55004 24638-55004 55004-55004zm17717 29528c5528 0 10004 4476 10004 10004s-4476 10004-10004 10004-10004-4476-10004-10004 4476-10004 10004-10004zm-35433 0c5528 0 10004 4476 10004 10004s-4476 10004-10004 10004-10004-4476-10004-10004 4476-10004 10004-10004zm55949 37287c-5043 16323-20268 28193-38232 28193-17965 0-33189-11870-38232-28193h76465zM49997 30000h140008c10996 0 19996 9000 19996 19996v91819c0 10996-9000 19996-19996 19996H49997c-10996 0-19996-9000-19996-19996V49996c0-10996 9000-19996 19996-19996z" id="Layer_x0020_1"/></svg>