<svg xmlns="http://www.w3.org/2000/svg" width="24" height="24" viewBox="0 0 240000 240000" shape-rendering="geometricPrecision" text-rendering="geometricPrecision" image-rendering="optimizeQuality" fill-rule="evenodd" clip-rule="evenodd"><defs><style><![CDATA[
    .fil0 {fill:url(#id0)}
   ]]></style><linearGradient id="id0" gradientUnits="userSpaceOnUse" x1="20244.1" y1="48354.3" x2="219756" y2="193465"><stop offset="0" stop-color="#959595"/><stop offset="1" stop-color="gray"/></linearGradient></defs><path class="fil0" d="M49996 10004h140008c21992 0 39992 18000 39992 39992v91819c0 21992-18000 39992-39992 39992v50008l-40004-50008H49996c-21992 0-39992-18000-39992-39992V49996c0-21992 18000-39992 39992-39992zm109783 43559l17339-10004c2374-1370 5445-555 6815 1831l12 12c1370 2374 543 5445-1831 6815l-17339 10016c-2374 1370-5445 543-6815-1831l-12-12c-1370-2386-555-5457 1831-6827zM57885 105378l17339-10004c2374-1370 5445-555 6815 1831l12 12c1370 2374 555 5445-1831 6815l-17327 10016c-2386 1370-5445 543-6827-1831v-12c-1382-2386-555-5457 1819-6827zm106890-10004l17327 10004c2386 1370 3201 4441 1831 6815l-12 24c-1370 2374-4441 3201-6815 1819l-17339-10004c-2374-1370-3201-4441-1831-6815l12-24c1370-2374 4441-3201 6827-1819zM62881 43559l17339 10004c2374 1370 3201 4441 1819 6815v24c-1382 2374-4441 3201-6827 1819L57885 52217c-2386-1370-3201-4441-1831-6815l12-24c1370-2374 4441-3201 6815-1819zm104988 30236h20020c2752 0 4996 2244 4996 4996v12c0 2752-2244 4996-4996 4996h-20020c-2740 0-4984-2244-4984-4996v-12c0-2752 2244-4996 4984-4996zm-115772 0h20020c2752 0 4996 2244 4996 4996v12c0 2752-2244 4996-4996 4996H52097c-2740 0-4984-2244-4984-4996v-12c0-2752 2244-4996 4984-4996zm67902-26079c17150 0 31075 13913 31075 31075 0 10169-4890 19193-12437 24862l35 31665c0 6815-5598 12413-12425 12413h-12437c-6827 0-12413-5575-12413-12413l-35-31665c-7547-5669-12437-14693-12437-24862 0-17161 13925-31075 31075-31075zm0 12425c10276 0 18638 8350 18638 18626 0 8091-5197 15012-12413 17575v15768h-12449V96342c-7217-2563-12413-9484-12413-17575 0-10276 8362-18626 18638-18626zM49995 29999h140008c10996 0 19996 9000 19996 19996v91819c0 10996-9000 19996-19996 19996H49995c-10996 0-19996-9000-19996-19996V49995c0-10996 9000-19996 19996-19996z" id="Layer_x0020_1"/></svg>