<svg xmlns="http://www.w3.org/2000/svg" width="24" height="24" viewBox="0 0 24000 24000" shape-rendering="geometricPrecision" text-rendering="geometricPrecision" image-rendering="optimizeQuality" fill-rule="evenodd" clip-rule="evenodd"><defs><style><![CDATA[
    .fil0 {fill:url(#id0)}
   ]]></style><linearGradient id="id0" gradientUnits="userSpaceOnUse" x1="2024.41" y1="4835.43" x2="21975.6" y2="19346.5"><stop offset="0" stop-color="#5BC4CF"/><stop offset="1" stop-color="#4195C0"/></linearGradient></defs><path class="fil0" d="M5000 1000h14001c2199 0 3999 1800 3999 3999v9182c0 2199-1800 3999-3999 3999v5001l-4000-5001H5001c-2199 0-3999-1800-3999-3999V4999c0-2199 1800-3999 3999-3999zm7000 3180c3037 0 5500 2464 5500 5500 0 3037-2464 5500-5500 5500-3037 0-5500-2464-5500-5500 0-3037 2464-5500 5500-5500zm1772 2953c553 0 1000 448 1000 1000 0 553-448 1000-1000 1000-553 0-1000-448-1000-1000 0-553 448-1000 1000-1000zm-3543 0c553 0 1000 448 1000 1000 0 553-448 1000-1000 1000-553 0-1000-448-1000-1000 0-553 448-1000 1000-1000zm5595 3729c-504 1632-2027 2819-3823 2819s-3319-1187-3823-2819h7646zM5000 3001h14001c1100 0 2000 900 2000 2000v9182c0 1100-900 2000-2000 2000H5000c-1100 0-2000-900-2000-2000V5001c0-1100 900-2000 2000-2000z" id="Layer_x0020_1"/></svg>