<svg xmlns="http://www.w3.org/2000/svg" width="24" height="24" viewBox="0 0 24000 24000" shape-rendering="geometricPrecision" text-rendering="geometricPrecision" image-rendering="optimizeQuality" fill-rule="evenodd" clip-rule="evenodd"><defs><style><![CDATA[
    .fil0 {fill:url(#id0)}
   ]]></style><linearGradient id="id0" gradientUnits="userSpaceOnUse" x1="2024.41" y1="4835.43" x2="21975.6" y2="19346.5"><stop offset="0" stop-color="#959595"/><stop offset="1" stop-color="gray"/></linearGradient></defs><path class="fil0" d="M5000 1000h14001c2199 0 3999 1800 3999 3999v9182c0 2199-1800 3999-3999 3999v5001l-4000-5001H5001c-2199 0-3999-1800-3999-3999V4999c0-2199 1800-3999 3999-3999zm11653 3235c-307-126-591-141-937-137H9870c-1207-61-2396 234-3424 827l1 1c-184 100-309 295-309 519 0 327 265 592 592 592 170 0 322-72 431-188 1285-689 2857-821 4307-226 2578 1058 3814 4017 2756 6594-283 691-705 1285-1219 1765l5 6c-175 103-294 293-294 511 0 326 266 591 592 591 210 0 394-110 500-275 625-588 1139-1315 1485-2159 24-58 2420-5861 2426-5876 409-996-69-2135-1064-2544zM7929 6588h1801c633 1847 1403 3556 2036 5404 339-79 645-191 940-313 188 282 215 724 391 1018-624 302-1372 480-2114 665-365-1122-827-2148-1213-3249-698 947-1280 2009-1958 2975H6481c-13-185 135-383 235-548 769-1276 1655-2714 2427-4032-67-324-227-556-313-861h-901V6589zM5000 3000h14001c1100 0 2000 900 2000 2000v9182c0 1100-900 2000-2000 2000H5000c-1100 0-2000-900-2000-2000V5000c0-1100 900-2000 2000-2000z" id="Layer_x0020_1"/></svg>