<svg xmlns="http://www.w3.org/2000/svg" width="24" height="24" viewBox="0 0 24000 24000" shape-rendering="geometricPrecision" text-rendering="geometricPrecision" image-rendering="optimizeQuality" fill-rule="evenodd" clip-rule="evenodd"><defs><style><![CDATA[
    .fil0 {fill:url(#id0)}
   ]]></style><linearGradient id="id0" gradientUnits="userSpaceOnUse" x1="2024.41" y1="4835.43" x2="21975.6" y2="19346.5"><stop offset="0" stop-color="#959595"/><stop offset="1" stop-color="gray"/></linearGradient></defs><path class="fil0" d="M5000 1000h14001c2199 0 3999 1800 3999 3999v9182c0 2199-1800 3999-3999 3999v5001l-4000-5001H5001c-2199 0-3999-1800-3999-3999V4999c0-2199 1800-3999 3999-3999zm12321 5922l735 735c77 76-330 605-735 1011-406 405-935 811-1011 735l-735-735c126-128 24-436-230-690s-562-357-689-229c-184 61-369 123-552 183l-1215 1215c335 344 333 899-7 1239l-4357 4356c-341 343-902 343-1244 0l-1090-1089c-341-343-341-902 0-1245l4357-4356c340-340 895-343 1238-7l1215-1215c292-291 465-619 339-984-866-660-1768-795-2470-504l-507-507c1398-1043 3664-1206 4935 65l1103 1103c-128 126-25 435 229 689s562 357 690 230zM5000 3000h14001c1100 0 2000 900 2000 2000v9182c0 1100-900 2000-2000 2000H5000c-1100 0-2000-900-2000-2000V5000c0-1100 900-2000 2000-2000z" id="Layer_x0020_1"/></svg>