<svg xmlns="http://www.w3.org/2000/svg" width="24" height="24" viewBox="0 0 240000 240000" shape-rendering="geometricPrecision" text-rendering="geometricPrecision" image-rendering="optimizeQuality" fill-rule="evenodd" clip-rule="evenodd"><defs><style><![CDATA[
    .fil0 {fill:url(#id0)}
   ]]></style><linearGradient id="id0" gradientUnits="userSpaceOnUse" x1="20244.1" y1="48354.3" x2="219756" y2="193465"><stop offset="0" stop-color="#959595"/><stop offset="1" stop-color="gray"/></linearGradient></defs><path class="fil0" d="M49996 10004h140008c21992 0 39992 18000 39992 39992v91819c0 21992-18000 39992-39992 39992v50008l-40004-50008H49996c-21992 0-39992-18000-39992-39992V49996c0-21992 18000-39992 39992-39992zm39803 31795h29244c10276 29988 22783 57756 33059 87744 5504-1287 10465-3106 15260-5091 3047 4594 3508 11764 6366 16535-10146 4913-22299 7795-34335 10807-5941-18224-13429-34890-19713-52772-11315 15390-20787 32634-31795 48319H66271c-201-3012 2197-6213 3815-8894 12484-20728 26882-44079 39413-65492-1087-5256-3673-9035-5079-13984H89798V41798zM49996 30000h140008c10996 0 19996 9000 19996 19996v91819c0 10996-9000 19996-19996 19996H49996c-10996 0-19996-9000-19996-19996V49996c0-10996 9000-19996 19996-19996z" id="Layer_x0020_1"/></svg>