<svg xmlns="http://www.w3.org/2000/svg" width="24" height="24" viewBox="0 0 240000 240000" shape-rendering="geometricPrecision" text-rendering="geometricPrecision" image-rendering="optimizeQuality" fill-rule="evenodd" clip-rule="evenodd"><defs><style><![CDATA[
    .fil0 {fill:url(#id0)}
   ]]></style><linearGradient id="id0" gradientUnits="userSpaceOnUse" x1="20244.1" y1="48354.3" x2="219756" y2="193465"><stop offset="0" stop-color="#5BC4CF"/><stop offset="1" stop-color="#4195C0"/></linearGradient></defs><path class="fil0" d="M49996 10004h140008c21992 0 39992 18000 39992 39992v91819c0 21992-18000 39992-39992 39992v50008l-40004-50008H49996c-21992 0-39992-18000-39992-39992V49996c0-21992 18000-39992 39992-39992zm123213 59220l7346 7346c768 756-3295 6047-7346 10110-4063 4051-9354 8114-10110 7346l-7346-7346c1264-1276 236-4358-2303-6898-2539-2539-5622-3567-6886-2291-1843 614-3685 1228-5516 1831l-12154 12154c3354 3437 3331 8988-71 12390l-43571 43559c-3413 3425-9024 3425-12437 0l-10902-10890c-3413-3425-3413-9024 0-12449l43571-43559c3402-3402 8953-3425 12378-71l12154-12154c2917-2906 4654-6189 3390-9839-8657-6602-17681-7949-24697-5043l-5067-5067c13984-10429 36638-12059 49346 650l11031 11031c-1276 1264-248 4346 2291 6886 2539 2539 5622 3567 6898 2303zM49996 30000h140008c10996 0 19996 9000 19996 19996v91819c0 10996-9000 19996-19996 19996H49996c-10996 0-19996-9000-19996-19996V49996c0-10996 9000-19996 19996-19996z" id="Layer_x0020_1"/></svg>