<svg xmlns="http://www.w3.org/2000/svg" width="24" height="24" viewBox="0 0 24000 24000" shape-rendering="geometricPrecision" text-rendering="geometricPrecision" image-rendering="optimizeQuality" fill-rule="evenodd" clip-rule="evenodd"><defs><style><![CDATA[
    .fil0 {fill:url(#id0)}
   ]]></style><linearGradient id="id0" gradientUnits="userSpaceOnUse" x1="1276.77" y1="4452.76" x2="22432.7" y2="19837.8"><stop offset="0" stop-color="#5BC4CF"/><stop offset="1" stop-color="#4195C0"/></linearGradient></defs><path class="fil0" d="M13899 15011c550 1919 268 4010-854 5694l-4179-4179c-4283 4068-7522 6765-7841 6448-318-319 2380-3559 6448-7841l-4179-4179c1684-1122 3774-1404 5694-854l6043-6043c-63-1069 210-2144 819-3058l7152 7152c-915 607-1989 880-3059 817l-6043 6043zm2340-12207c-89 275-157 556-207 840l1303 1303c111-229 236-452 377-670l-1473-1473zm-6341 8204l967 969 6043-6043-967-969-6043 6043zm-4322 813c978-467 2049-670 3109-611l969 969c-876 234-1714 658-2446 1274l-1631-1632z" id="Layer_x0020_1"/></svg>