<svg xmlns="http://www.w3.org/2000/svg" width="24" height="24" viewBox="0 0 24 24" shape-rendering="geometricPrecision" text-rendering="geometricPrecision" image-rendering="optimizeQuality" fill-rule="evenodd" clip-rule="evenodd"><defs><style><![CDATA[
    .fil0 {fill:url(#id0)}
   ]]></style><linearGradient id="id0" gradientUnits="userSpaceOnUse" x1="1.761" y1="4.054" x2="22.239" y2="18.946"><stop offset="0" stop-color="#959595"/><stop offset="1" stop-color="gray"/></linearGradient></defs><path class="fil0" d="M5 1h14c2 0 4 2 4 4v8c0 2-2 4-4 4v5l-4-5H5c-2 0-4-2-4-4V5c0-2 2-4 4-4zm10 7h2v2h-2V8zm-4 0h2v2h-2V8zM7 8h2v2H7V8zM5 3h14c1 0 2 1 2 2v8c0 1-1 2-2 2H5c-1 0-2-1-2-2V5c0-1 1-2 2-2z" id="Layer_x0020_1"/></svg>