<svg xmlns="http://www.w3.org/2000/svg" width="24" height="24" viewBox="0 0 240000 240000" shape-rendering="geometricPrecision" text-rendering="geometricPrecision" image-rendering="optimizeQuality" fill-rule="evenodd" clip-rule="evenodd"><defs><style><![CDATA[
    .fil0 {fill:url(#id0)}
   ]]></style><linearGradient id="id0" gradientUnits="userSpaceOnUse" x1="12767.7" y1="44527.6" x2="224327" y2="198378"><stop offset="0" stop-color="#959595"/><stop offset="1" stop-color="gray"/></linearGradient></defs><path class="fil0" d="M138992 150106c5504 19193 2681 40098-8539 56941l-41787-41787c-42827 40677-75224 67654-78413 64476-3177-3189 23799-35587 64476-78413l-41787-41787c16843-11220 37736-14043 56941-8539l60425-60425c-626-10689 2102-21437 8185-30579l71516 71516c-9154 6071-19890 8799-30591 8173l-60425 60425zm23398-122067c-886 2752-1571 5563-2067 8398l13028 13028c1110-2291 2362-4524 3768-6697l-14728-14728zm-63413 82039l9673 9685 60425-60425-9673-9685-60425 60425zm-43217 8126c9780-4665 20492-6697 31087-6106l9685 9685c-8764 2339-17138 6579-24461 12744l-16311-16323z" id="Layer_x0020_1"/></svg>